<?xml version="1.0" encoding="us-ascii" standalone="no"?><svg xmlns="http://www.w3.org/2000/svg" xmlns:xlink="http://www.w3.org/1999/xlink" contentStyleType="text/css" height="1800px" preserveAspectRatio="none" style="width:1328px;height:1800px;background:#EEEEEE;" version="1.1" viewBox="0 0 1328 1800" width="1328px" zoomAndPan="magnify"><defs/><g><rect fill="#EEEEEE" height="1800" style="stroke:none;stroke-width:1.0;" width="1328" x="0" y="0"/><text fill="#000000" font-family="D-DIN" font-size="14" font-weight="bold" lengthAdjust="spacing" textLength="150" x="585" y="27.838">Code - Command handling</text><rect fill="#FFFFFF" height="112.708" style="stroke:#181818;stroke-width:1.0;" width="10" x="110.5" y="207.578"/><rect fill="#FFFFFF" height="56.354" style="stroke:#181818;stroke-width:1.0;" width="10" x="226.5" y="263.932"/><rect fill="#FFFFFF" height="58.118" style="stroke:#181818;stroke-width:1.0;" width="10" x="226.5" y="1513.426"/><rect fill="#FFFFFF" height="1227.248" style="stroke:#181818;stroke-width:1.0;" width="10" x="390.5" y="428.532"/><rect fill="#FFFFFF" height="30" style="stroke:#181818;stroke-width:1.0;" width="10" x="395.5" y="1541.544"/><rect fill="#FFFFFF" height="1227.248" style="stroke:#181818;stroke-width:1.0;" width="10" x="526.5" y="428.532"/><rect fill="#FFFFFF" height="1115.776" style="stroke:#181818;stroke-width:1.0;" width="10" x="660" y="511.886"/><rect fill="#FFFFFF" height="28.118" style="stroke:#181818;stroke-width:1.0;" width="10" x="796" y="540.004"/><rect fill="#FFFFFF" height="28.118" style="stroke:#181818;stroke-width:1.0;" width="10" x="796" y="826.184"/><rect fill="#FFFFFF" height="28.118" style="stroke:#181818;stroke-width:1.0;" width="10" x="796" y="1393.954"/><rect fill="#FFFFFF" height="122.472" style="stroke:#181818;stroke-width:1.0;" width="10" x="885.5" y="917.538"/><rect fill="#FFFFFF" height="28.118" style="stroke:#181818;stroke-width:1.0;" width="10" x="965" y="1180.364"/><rect fill="#FFFFFF" height="923.068" style="stroke:#181818;stroke-width:1.0;" width="10" x="1059" y="690.594"/><rect fill="#FFFFFF" height="341.416" style="stroke:#181818;stroke-width:1.0;" width="10" x="1064" y="718.712"/><rect fill="#FFFFFF" height="150.59" style="stroke:#181818;stroke-width:1.0;" width="10" x="1064" y="1314.6"/><rect fill="#FFFFFF" height="114.354" style="stroke:#181818;stroke-width:1.0;" width="10" x="1064" y="1485.308"/><rect fill="#FFFFFF" height="84.354" style="stroke:#181818;stroke-width:1.0;" width="10" x="1175" y="798.066"/><rect fill="#FFFFFF" height="84.354" style="stroke:#181818;stroke-width:1.0;" width="10" x="1175" y="1365.836"/><rect fill="#FFFFFF" height="894.95" style="stroke:#181818;stroke-width:1.0;" width="10" x="1275.5" y="718.712"/><rect fill="none" height="128.59" style="stroke:#000000;stroke-width:1.5;" width="497" x="748" y="761.83"/><rect fill="none" height="72.354" style="stroke:#000000;stroke-width:1.5;" width="281" x="844" y="960.656"/><rect fill="none" height="128.59" style="stroke:#000000;stroke-width:1.5;" width="497" x="748" y="1329.6"/><line style="stroke:#181818;stroke-width:0.5;stroke-dasharray:5.0,5.0;" x1="29" x2="29" y1="149.224" y2="328.286"/><line style="stroke:#A80036;stroke-width:1.0;stroke-dasharray:1.0,4.0;" x1="29" x2="29" y1="328.286" y2="380.178"/><line style="stroke:#181818;stroke-width:0.5;stroke-dasharray:5.0,5.0;" x1="29" x2="29" y1="380.178" y2="1673.78"/><line style="stroke:#181818;stroke-width:0.5;stroke-dasharray:5.0,5.0;" x1="115" x2="115" y1="149.224" y2="328.286"/><line style="stroke:#A80036;stroke-width:1.0;stroke-dasharray:1.0,4.0;" x1="115" x2="115" y1="328.286" y2="380.178"/><line style="stroke:#181818;stroke-width:0.5;stroke-dasharray:5.0,5.0;" x1="115" x2="115" y1="380.178" y2="1673.78"/><line style="stroke:#181818;stroke-width:0.5;stroke-dasharray:5.0,5.0;" x1="231.5" x2="231.5" y1="149.224" y2="328.286"/><line style="stroke:#A80036;stroke-width:1.0;stroke-dasharray:1.0,4.0;" x1="231.5" x2="231.5" y1="328.286" y2="380.178"/><line style="stroke:#181818;stroke-width:0.5;stroke-dasharray:5.0,5.0;" x1="231.5" x2="231.5" y1="380.178" y2="1673.78"/><line style="stroke:#181818;stroke-width:0.5;stroke-dasharray:5.0,5.0;" x1="395.5" x2="395.5" y1="149.224" y2="328.286"/><line style="stroke:#A80036;stroke-width:1.0;stroke-dasharray:1.0,4.0;" x1="395.5" x2="395.5" y1="328.286" y2="380.178"/><line style="stroke:#181818;stroke-width:0.5;stroke-dasharray:5.0,5.0;" x1="395.5" x2="395.5" y1="380.178" y2="1673.78"/><line style="stroke:#181818;stroke-width:0.5;stroke-dasharray:5.0,5.0;" x1="531.5" x2="531.5" y1="149.224" y2="328.286"/><line style="stroke:#A80036;stroke-width:1.0;stroke-dasharray:1.0,4.0;" x1="531.5" x2="531.5" y1="328.286" y2="380.178"/><line style="stroke:#181818;stroke-width:0.5;stroke-dasharray:5.0,5.0;" x1="531.5" x2="531.5" y1="380.178" y2="1673.78"/><line style="stroke:#181818;stroke-width:0.5;stroke-dasharray:5.0,5.0;" x1="664.5" x2="664.5" y1="149.224" y2="328.286"/><line style="stroke:#A80036;stroke-width:1.0;stroke-dasharray:1.0,4.0;" x1="664.5" x2="664.5" y1="328.286" y2="380.178"/><line style="stroke:#181818;stroke-width:0.5;stroke-dasharray:5.0,5.0;" x1="664.5" x2="664.5" y1="380.178" y2="1673.78"/><line style="stroke:#181818;stroke-width:0.5;stroke-dasharray:5.0,5.0;" x1="801" x2="801" y1="149.224" y2="328.286"/><line style="stroke:#A80036;stroke-width:1.0;stroke-dasharray:1.0,4.0;" x1="801" x2="801" y1="328.286" y2="380.178"/><line style="stroke:#181818;stroke-width:0.5;stroke-dasharray:5.0,5.0;" x1="801" x2="801" y1="380.178" y2="1673.78"/><line style="stroke:#181818;stroke-width:0.5;stroke-dasharray:5.0,5.0;" x1="890" x2="890" y1="149.224" y2="328.286"/><line style="stroke:#A80036;stroke-width:1.0;stroke-dasharray:1.0,4.0;" x1="890" x2="890" y1="328.286" y2="380.178"/><line style="stroke:#181818;stroke-width:0.5;stroke-dasharray:5.0,5.0;" x1="890" x2="890" y1="380.178" y2="1673.78"/><line style="stroke:#181818;stroke-width:0.5;stroke-dasharray:5.0,5.0;" x1="970" x2="970" y1="149.224" y2="328.286"/><line style="stroke:#A80036;stroke-width:1.0;stroke-dasharray:1.0,4.0;" x1="970" x2="970" y1="328.286" y2="380.178"/><line style="stroke:#181818;stroke-width:0.5;stroke-dasharray:5.0,5.0;" x1="970" x2="970" y1="380.178" y2="1673.78"/><line style="stroke:#181818;stroke-width:0.5;stroke-dasharray:5.0,5.0;" x1="1064" x2="1064" y1="149.224" y2="328.286"/><line style="stroke:#A80036;stroke-width:1.0;stroke-dasharray:1.0,4.0;" x1="1064" x2="1064" y1="328.286" y2="380.178"/><line style="stroke:#181818;stroke-width:0.5;stroke-dasharray:5.0,5.0;" x1="1064" x2="1064" y1="380.178" y2="1673.78"/><line style="stroke:#181818;stroke-width:0.5;stroke-dasharray:5.0,5.0;" x1="1180" x2="1180" y1="149.224" y2="328.286"/><line style="stroke:#A80036;stroke-width:1.0;stroke-dasharray:1.0,4.0;" x1="1180" x2="1180" y1="328.286" y2="380.178"/><line style="stroke:#181818;stroke-width:0.5;stroke-dasharray:5.0,5.0;" x1="1180" x2="1180" y1="380.178" y2="1673.78"/><line style="stroke:#181818;stroke-width:0.5;stroke-dasharray:5.0,5.0;" x1="1280" x2="1280" y1="149.224" y2="328.286"/><line style="stroke:#A80036;stroke-width:1.0;stroke-dasharray:1.0,4.0;" x1="1280" x2="1280" y1="328.286" y2="380.178"/><line style="stroke:#181818;stroke-width:0.5;stroke-dasharray:5.0,5.0;" x1="1280" x2="1280" y1="380.178" y2="1673.78"/><rect fill="#E2E2F0" height="29.204" rx="2.5" ry="2.5" style="stroke:#181818;stroke-width:0.5;" width="49" x="5" y="119.02"/><text fill="#000000" font-family="D-DIN" font-size="14" lengthAdjust="spacing" textLength="35" x="12" y="138.858">Client</text><rect fill="#E2E2F0" height="29.204" rx="2.5" ry="2.5" style="stroke:#181818;stroke-width:0.5;" width="49" x="5" y="1672.78"/><text fill="#000000" font-family="D-DIN" font-size="14" lengthAdjust="spacing" textLength="35" x="12" y="1692.618">Client</text><text fill="#000000" font-family="D-DIN" font-size="14" lengthAdjust="spacing" textLength="19" x="103" y="146.858">API</text><path d="M95,106.02 L95,130.02 M95,118.02 L112,118.02 " fill="none" style="stroke:#181818;stroke-width:0.5;"/><ellipse cx="124" cy="118.02" fill="#E2E2F0" rx="12" ry="12" style="stroke:#181818;stroke-width:0.5;"/><text fill="#000000" font-family="D-DIN" font-size="14" lengthAdjust="spacing" textLength="19" x="103" y="1685.618">API</text><path d="M95,1691.984 L95,1715.984 M95,1703.984 L112,1703.984 " fill="none" style="stroke:#181818;stroke-width:0.5;"/><ellipse cx="124" cy="1703.984" fill="#E2E2F0" rx="12" ry="12" style="stroke:#181818;stroke-width:0.5;"/><text fill="#000000" font-family="D-DIN" font-size="14" lengthAdjust="spacing" textLength="96" x="180.5" y="101.246">[Ports/Adapters]</text><text fill="#000000" font-family="D-DIN" font-size="14" lengthAdjust="spacing" textLength="3" x="227" y="116.45">&#160;</text><text fill="#000000" font-family="D-DIN" font-size="14" lengthAdjust="spacing" textLength="76" x="190.5" y="131.654">Message Bus</text><text fill="#000000" font-family="D-DIN" font-size="14" lengthAdjust="spacing" textLength="46" x="205.5" y="146.858">Adapter</text><ellipse cx="231.5" cy="72.408" fill="#E2E2F0" rx="12" ry="12" style="stroke:#181818;stroke-width:0.5;"/><polygon fill="#181818" points="227.5,60.408,233.5,55.408,231.5,60.408,233.5,65.408,227.5,60.408" style="stroke:#181818;stroke-width:1.0;"/><text fill="#000000" font-family="D-DIN" font-size="14" lengthAdjust="spacing" textLength="96" x="180.5" y="1685.618">[Ports/Adapters]</text><text fill="#000000" font-family="D-DIN" font-size="14" lengthAdjust="spacing" textLength="3" x="227" y="1700.822">&#160;</text><text fill="#000000" font-family="D-DIN" font-size="14" lengthAdjust="spacing" textLength="76" x="190.5" y="1716.026">Message Bus</text><text fill="#000000" font-family="D-DIN" font-size="14" lengthAdjust="spacing" textLength="46" x="205.5" y="1731.23">Adapter</text><ellipse cx="231.5" cy="1749.596" fill="#E2E2F0" rx="12" ry="12" style="stroke:#181818;stroke-width:0.5;"/><polygon fill="#181818" points="227.5,1737.596,233.5,1732.596,231.5,1737.596,233.5,1742.596,227.5,1737.596" style="stroke:#181818;stroke-width:1.0;"/><path d="M352.5,124.02 L438.5,124.02 C443.5,124.02 443.5,136.622 443.5,136.622 C443.5,136.622 443.5,149.224 438.5,149.224 L352.5,149.224 C347.5,149.224 347.5,136.622 347.5,136.622 C347.5,136.622 347.5,124.02 352.5,124.02 " fill="#E2E2F0" style="stroke:#181818;stroke-width:0.5;"/><path d="M438.5,124.02 C433.5,124.02 433.5,136.622 433.5,136.622 C433.5,149.224 438.5,149.224 438.5,149.224 " fill="none" style="stroke:#181818;stroke-width:0.5;"/><text fill="#000000" font-family="D-DIN" font-size="14" lengthAdjust="spacing" textLength="76" x="352.5" y="141.858">Message Bus</text><path d="M352.5,1672.78 L438.5,1672.78 C443.5,1672.78 443.5,1685.382 443.5,1685.382 C443.5,1685.382 443.5,1697.984 438.5,1697.984 L352.5,1697.984 C347.5,1697.984 347.5,1685.382 347.5,1685.382 C347.5,1685.382 347.5,1672.78 352.5,1672.78 " fill="#E2E2F0" style="stroke:#181818;stroke-width:0.5;"/><path d="M438.5,1672.78 C433.5,1672.78 433.5,1685.382 433.5,1685.382 C433.5,1697.984 438.5,1697.984 438.5,1697.984 " fill="none" style="stroke:#181818;stroke-width:0.5;"/><text fill="#000000" font-family="D-DIN" font-size="14" lengthAdjust="spacing" textLength="76" x="352.5" y="1690.618">Message Bus</text><text fill="#000000" font-family="D-DIN" font-size="14" lengthAdjust="spacing" textLength="146" x="455.5" y="116.45">[Application.MassTransit]</text><text fill="#000000" font-family="D-DIN" font-size="14" lengthAdjust="spacing" textLength="3" x="527" y="131.654">&#160;</text><text fill="#000000" font-family="D-DIN" font-size="14" lengthAdjust="spacing" textLength="114" x="471.5" y="146.858">Message Consumer</text><ellipse cx="531.5" cy="87.612" fill="#E2E2F0" rx="12" ry="12" style="stroke:#181818;stroke-width:0.5;"/><polygon fill="#181818" points="527.5,75.612,533.5,70.612,531.5,75.612,533.5,80.612,527.5,75.612" style="stroke:#181818;stroke-width:1.0;"/><text fill="#000000" font-family="D-DIN" font-size="14" lengthAdjust="spacing" textLength="146" x="455.5" y="1685.618">[Application.MassTransit]</text><text fill="#000000" font-family="D-DIN" font-size="14" lengthAdjust="spacing" textLength="3" x="527" y="1700.822">&#160;</text><text fill="#000000" font-family="D-DIN" font-size="14" lengthAdjust="spacing" textLength="114" x="471.5" y="1716.026">Message Consumer</text><ellipse cx="531.5" cy="1734.392" fill="#E2E2F0" rx="12" ry="12" style="stroke:#181818;stroke-width:0.5;"/><polygon fill="#181818" points="527.5,1722.392,533.5,1717.392,531.5,1722.392,533.5,1727.392,527.5,1722.392" style="stroke:#181818;stroke-width:1.0;"/><text fill="#000000" font-family="D-DIN" font-size="14" lengthAdjust="spacing" textLength="73" x="625.5" y="86.042">[Application]</text><text fill="#000000" font-family="D-DIN" font-size="14" lengthAdjust="spacing" textLength="3" x="660.5" y="101.246">&#160;</text><text fill="#000000" font-family="D-DIN" font-size="14" lengthAdjust="spacing" textLength="45" x="639.5" y="116.45">Generic</text><text fill="#000000" font-family="D-DIN" font-size="14" lengthAdjust="spacing" textLength="89" x="617.5" y="131.654">Command DTO</text><text fill="#000000" font-family="D-DIN" font-size="14" lengthAdjust="spacing" textLength="44" x="640" y="146.858">handler</text><ellipse cx="665" cy="57.204" fill="#E2E2F0" rx="12" ry="12" style="stroke:#181818;stroke-width:0.5;"/><polygon fill="#181818" points="661,45.204,667,40.204,665,45.204,667,50.204,661,45.204" style="stroke:#181818;stroke-width:1.0;"/><text fill="#000000" font-family="D-DIN" font-size="14" lengthAdjust="spacing" textLength="73" x="625.5" y="1685.618">[Application]</text><text fill="#000000" font-family="D-DIN" font-size="14" lengthAdjust="spacing" textLength="3" x="660.5" y="1700.822">&#160;</text><text fill="#000000" font-family="D-DIN" font-size="14" lengthAdjust="spacing" textLength="45" x="639.5" y="1716.026">Generic</text><text fill="#000000" font-family="D-DIN" font-size="14" lengthAdjust="spacing" textLength="89" x="617.5" y="1731.23">Command DTO</text><text fill="#000000" font-family="D-DIN" font-size="14" lengthAdjust="spacing" textLength="44" x="640" y="1746.434">handler</text><ellipse cx="665" cy="1764.8" fill="#E2E2F0" rx="12" ry="12" style="stroke:#181818;stroke-width:0.5;"/><polygon fill="#181818" points="661,1752.8,667,1747.8,665,1752.8,667,1757.8,661,1752.8" style="stroke:#181818;stroke-width:1.0;"/><rect fill="#E2E2F0" height="59.612" rx="2.5" ry="2.5" style="stroke:#181818;stroke-width:0.5;" width="86" x="758" y="88.612"/><text fill="#000000" font-family="D-DIN" font-size="14" lengthAdjust="spacing" textLength="53" x="774.5" y="108.45">[Domain]</text><text fill="#000000" font-family="D-DIN" font-size="14" lengthAdjust="spacing" textLength="3" x="799.5" y="123.654">&#160;</text><text fill="#000000" font-family="D-DIN" font-size="14" lengthAdjust="spacing" textLength="72" x="765" y="138.858">DTO Mapper</text><rect fill="#E2E2F0" height="59.612" rx="2.5" ry="2.5" style="stroke:#181818;stroke-width:0.5;" width="86" x="758" y="1672.78"/><text fill="#000000" font-family="D-DIN" font-size="14" lengthAdjust="spacing" textLength="53" x="774.5" y="1692.618">[Domain]</text><text fill="#000000" font-family="D-DIN" font-size="14" lengthAdjust="spacing" textLength="3" x="799.5" y="1707.822">&#160;</text><text fill="#000000" font-family="D-DIN" font-size="14" lengthAdjust="spacing" textLength="72" x="765" y="1723.026">DTO Mapper</text><rect fill="#E2E2F0" height="74.816" rx="2.5" ry="2.5" style="stroke:#181818;stroke-width:0.5;" width="73" x="854" y="73.408"/><text fill="#000000" font-family="D-DIN" font-size="14" lengthAdjust="spacing" textLength="53" x="864" y="93.246">[Domain]</text><text fill="#000000" font-family="D-DIN" font-size="14" lengthAdjust="spacing" textLength="3" x="889" y="108.45">&#160;</text><text fill="#000000" font-family="D-DIN" font-size="14" lengthAdjust="spacing" textLength="32" x="874.5" y="123.654">State</text><text fill="#000000" font-family="D-DIN" font-size="14" lengthAdjust="spacing" textLength="59" x="861" y="138.858">Projection</text><rect fill="#E2E2F0" height="74.816" rx="2.5" ry="2.5" style="stroke:#181818;stroke-width:0.5;" width="73" x="854" y="1672.78"/><text fill="#000000" font-family="D-DIN" font-size="14" lengthAdjust="spacing" textLength="53" x="864" y="1692.618">[Domain]</text><text fill="#000000" font-family="D-DIN" font-size="14" lengthAdjust="spacing" textLength="3" x="889" y="1707.822">&#160;</text><text fill="#000000" font-family="D-DIN" font-size="14" lengthAdjust="spacing" textLength="32" x="874.5" y="1723.026">State</text><text fill="#000000" font-family="D-DIN" font-size="14" lengthAdjust="spacing" textLength="59" x="861" y="1738.23">Projection</text><text fill="#000000" font-family="D-DIN" font-size="14" lengthAdjust="spacing" textLength="53" x="940.5" y="116.45">[Domain]</text><text fill="#000000" font-family="D-DIN" font-size="14" lengthAdjust="spacing" textLength="3" x="965.5" y="131.654">&#160;</text><text fill="#000000" font-family="D-DIN" font-size="14" lengthAdjust="spacing" textLength="60" x="937" y="146.858">Aggregate</text><ellipse cx="970" cy="87.612" fill="#E2E2F0" rx="12" ry="12" style="stroke:#181818;stroke-width:0.5;"/><line style="stroke:#181818;stroke-width:0.5;" x1="958" x2="982" y1="101.612" y2="101.612"/><text fill="#000000" font-family="D-DIN" font-size="14" lengthAdjust="spacing" textLength="53" x="940.5" y="1685.618">[Domain]</text><text fill="#000000" font-family="D-DIN" font-size="14" lengthAdjust="spacing" textLength="3" x="965.5" y="1700.822">&#160;</text><text fill="#000000" font-family="D-DIN" font-size="14" lengthAdjust="spacing" textLength="60" x="937" y="1716.026">Aggregate</text><ellipse cx="970" cy="1734.392" fill="#E2E2F0" rx="12" ry="12" style="stroke:#181818;stroke-width:0.5;"/><line style="stroke:#181818;stroke-width:0.5;" x1="958" x2="982" y1="1748.392" y2="1748.392"/><text fill="#000000" font-family="D-DIN" font-size="14" lengthAdjust="spacing" textLength="96" x="1013" y="101.246">[Ports/Adapters]</text><text fill="#000000" font-family="D-DIN" font-size="14" lengthAdjust="spacing" textLength="3" x="1059.5" y="116.45">&#160;</text><text fill="#000000" font-family="D-DIN" font-size="14" lengthAdjust="spacing" textLength="65" x="1028.5" y="131.654">EventStore</text><text fill="#000000" font-family="D-DIN" font-size="14" lengthAdjust="spacing" textLength="46" x="1038" y="146.858">Adapter</text><ellipse cx="1064" cy="72.408" fill="#E2E2F0" rx="12" ry="12" style="stroke:#181818;stroke-width:0.5;"/><polygon fill="#181818" points="1060,60.408,1066,55.408,1064,60.408,1066,65.408,1060,60.408" style="stroke:#181818;stroke-width:1.0;"/><text fill="#000000" font-family="D-DIN" font-size="14" lengthAdjust="spacing" textLength="96" x="1013" y="1685.618">[Ports/Adapters]</text><text fill="#000000" font-family="D-DIN" font-size="14" lengthAdjust="spacing" textLength="3" x="1059.5" y="1700.822">&#160;</text><text fill="#000000" font-family="D-DIN" font-size="14" lengthAdjust="spacing" textLength="65" x="1028.5" y="1716.026">EventStore</text><text fill="#000000" font-family="D-DIN" font-size="14" lengthAdjust="spacing" textLength="46" x="1038" y="1731.23">Adapter</text><ellipse cx="1064" cy="1749.596" fill="#E2E2F0" rx="12" ry="12" style="stroke:#181818;stroke-width:0.5;"/><polygon fill="#181818" points="1060,1737.596,1066,1732.596,1064,1737.596,1066,1742.596,1060,1737.596" style="stroke:#181818;stroke-width:1.0;"/><rect fill="#E2E2F0" height="74.816" rx="2.5" ry="2.5" style="stroke:#181818;stroke-width:0.5;" width="110" x="1125" y="73.408"/><text fill="#000000" font-family="D-DIN" font-size="14" lengthAdjust="spacing" textLength="96" x="1132" y="93.246">[Ports/Adapters]</text><text fill="#000000" font-family="D-DIN" font-size="14" lengthAdjust="spacing" textLength="3" x="1178.5" y="108.45">&#160;</text><text fill="#000000" font-family="D-DIN" font-size="14" lengthAdjust="spacing" textLength="65" x="1147.5" y="123.654">EventStore</text><text fill="#000000" font-family="D-DIN" font-size="14" lengthAdjust="spacing" textLength="80" x="1140" y="138.858">Event Mapper</text><rect fill="#E2E2F0" height="74.816" rx="2.5" ry="2.5" style="stroke:#181818;stroke-width:0.5;" width="110" x="1125" y="1672.78"/><text fill="#000000" font-family="D-DIN" font-size="14" lengthAdjust="spacing" textLength="96" x="1132" y="1692.618">[Ports/Adapters]</text><text fill="#000000" font-family="D-DIN" font-size="14" lengthAdjust="spacing" textLength="3" x="1178.5" y="1707.822">&#160;</text><text fill="#000000" font-family="D-DIN" font-size="14" lengthAdjust="spacing" textLength="65" x="1147.5" y="1723.026">EventStore</text><text fill="#000000" font-family="D-DIN" font-size="14" lengthAdjust="spacing" textLength="80" x="1140" y="1738.23">Event Mapper</text><text fill="#000000" font-family="D-DIN" font-size="14" lengthAdjust="spacing" textLength="65" x="1245" y="146.858">EventStore</text><path d="M1262.5,98.02 C1262.5,88.02 1280.5,88.02 1280.5,88.02 C1280.5,88.02 1298.5,88.02 1298.5,98.02 L1298.5,124.02 C1298.5,134.02 1280.5,134.02 1280.5,134.02 C1280.5,134.02 1262.5,134.02 1262.5,124.02 L1262.5,98.02 " fill="#E2E2F0" style="stroke:#181818;stroke-width:1.5;"/><path d="M1262.5,98.02 C1262.5,108.02 1280.5,108.02 1280.5,108.02 C1280.5,108.02 1298.5,108.02 1298.5,98.02 " fill="none" style="stroke:#181818;stroke-width:1.5;"/><text fill="#000000" font-family="D-DIN" font-size="14" lengthAdjust="spacing" textLength="65" x="1245" y="1685.618">EventStore</text><path d="M1262.5,1697.984 C1262.5,1687.984 1280.5,1687.984 1280.5,1687.984 C1280.5,1687.984 1298.5,1687.984 1298.5,1697.984 L1298.5,1723.984 C1298.5,1733.984 1280.5,1733.984 1280.5,1733.984 C1280.5,1733.984 1262.5,1733.984 1262.5,1723.984 L1262.5,1697.984 " fill="#E2E2F0" style="stroke:#181818;stroke-width:1.5;"/><path d="M1262.5,1697.984 C1262.5,1707.984 1280.5,1707.984 1280.5,1707.984 C1280.5,1707.984 1298.5,1707.984 1298.5,1697.984 " fill="none" style="stroke:#181818;stroke-width:1.5;"/><rect fill="#FFFFFF" height="112.708" style="stroke:#181818;stroke-width:1.0;" width="10" x="110.5" y="207.578"/><rect fill="#FFFFFF" height="56.354" style="stroke:#181818;stroke-width:1.0;" width="10" x="226.5" y="263.932"/><rect fill="#FFFFFF" height="58.118" style="stroke:#181818;stroke-width:1.0;" width="10" x="226.5" y="1513.426"/><rect fill="#FFFFFF" height="1227.248" style="stroke:#181818;stroke-width:1.0;" width="10" x="390.5" y="428.532"/><rect fill="#FFFFFF" height="30" style="stroke:#181818;stroke-width:1.0;" width="10" x="395.5" y="1541.544"/><rect fill="#FFFFFF" height="1227.248" style="stroke:#181818;stroke-width:1.0;" width="10" x="526.5" y="428.532"/><rect fill="#FFFFFF" height="1115.776" style="stroke:#181818;stroke-width:1.0;" width="10" x="660" y="511.886"/><rect fill="#FFFFFF" height="28.118" style="stroke:#181818;stroke-width:1.0;" width="10" x="796" y="540.004"/><rect fill="#FFFFFF" height="28.118" style="stroke:#181818;stroke-width:1.0;" width="10" x="796" y="826.184"/><rect fill="#FFFFFF" height="28.118" style="stroke:#181818;stroke-width:1.0;" width="10" x="796" y="1393.954"/><rect fill="#FFFFFF" height="122.472" style="stroke:#181818;stroke-width:1.0;" width="10" x="885.5" y="917.538"/><rect fill="#FFFFFF" height="28.118" style="stroke:#181818;stroke-width:1.0;" width="10" x="965" y="1180.364"/><rect fill="#FFFFFF" height="923.068" style="stroke:#181818;stroke-width:1.0;" width="10" x="1059" y="690.594"/><rect fill="#FFFFFF" height="341.416" style="stroke:#181818;stroke-width:1.0;" width="10" x="1064" y="718.712"/><rect fill="#FFFFFF" height="150.59" style="stroke:#181818;stroke-width:1.0;" width="10" x="1064" y="1314.6"/><rect fill="#FFFFFF" height="114.354" style="stroke:#181818;stroke-width:1.0;" width="10" x="1064" y="1485.308"/><rect fill="#FFFFFF" height="84.354" style="stroke:#181818;stroke-width:1.0;" width="10" x="1175" y="798.066"/><rect fill="#FFFFFF" height="84.354" style="stroke:#181818;stroke-width:1.0;" width="10" x="1175" y="1365.836"/><rect fill="#FFFFFF" height="894.95" style="stroke:#181818;stroke-width:1.0;" width="10" x="1275.5" y="718.712"/><polygon fill="#181818" points="98.5,203.578,108.5,207.578,98.5,211.578,102.5,207.578" style="stroke:#181818;stroke-width:1.0;"/><line style="stroke:#181818;stroke-width:1.0;" x1="29.5" x2="104.5" y1="207.578" y2="207.578"/><text fill="#000000" font-family="D-DIN" font-size="13" lengthAdjust="spacing" textLength="39" x="36.5" y="175.145">Submit</text><text fill="#000000" font-family="D-DIN" font-size="13" lengthAdjust="spacing" textLength="56" x="36.5" y="189.263">command</text><text fill="#000000" font-family="D-DIN" font-size="13" lengthAdjust="spacing" textLength="62" x="36.5" y="203.381">parameters</text><polygon fill="#181818" points="214.5,259.932,224.5,263.932,214.5,267.932,218.5,263.932" style="stroke:#181818;stroke-width:1.0;"/><line style="stroke:#181818;stroke-width:1.0;" x1="120.5" x2="220.5" y1="263.932" y2="263.932"/><text fill="#000000" font-family="D-DIN" font-size="13" lengthAdjust="spacing" textLength="87" x="127.5" y="231.499">Send command</text><text fill="#000000" font-family="D-DIN" font-size="13" lengthAdjust="spacing" textLength="68" x="127.5" y="245.617">[MassTransit</text><text fill="#000000" font-family="D-DIN" font-size="13" lengthAdjust="spacing" textLength="81" x="127.5" y="259.735">DTO envelope]</text><polygon fill="#181818" points="383.5,316.286,393.5,320.286,383.5,324.286,387.5,320.286" style="stroke:#181818;stroke-width:1.0;"/><line style="stroke:#181818;stroke-width:1.0;stroke-dasharray:2.0,2.0;" x1="231.5" x2="389.5" y1="320.286" y2="320.286"/><text fill="#000000" font-family="D-DIN" font-size="13" lengthAdjust="spacing" textLength="87" x="238.5" y="287.853">Send command</text><text fill="#000000" font-family="D-DIN" font-size="13" lengthAdjust="spacing" textLength="68" x="238.5" y="301.971">[MassTransit</text><text fill="#000000" font-family="D-DIN" font-size="13" lengthAdjust="spacing" textLength="81" x="238.5" y="316.089">DTO envelope]</text><text fill="#000000" font-family="D-DIN" font-size="11" lengthAdjust="spacing" textLength="2" x="654" y="352.373">&#160;</text><text fill="#000000" font-family="D-DIN" font-size="11" lengthAdjust="spacing" textLength="2" x="654" y="364.319">&#160;</text><polygon fill="#181818" points="514.5,424.532,524.5,428.532,514.5,432.532,518.5,428.532" style="stroke:#181818;stroke-width:1.0;"/><line style="stroke:#181818;stroke-width:1.0;stroke-dasharray:2.0,2.0;" x1="400.5" x2="520.5" y1="428.532" y2="428.532"/><text fill="#000000" font-family="D-DIN" font-size="13" lengthAdjust="spacing" textLength="112" x="407.5" y="396.099">Consume command</text><text fill="#000000" font-family="D-DIN" font-size="13" lengthAdjust="spacing" textLength="68" x="407.5" y="410.217">[MassTransit</text><text fill="#000000" font-family="D-DIN" font-size="13" lengthAdjust="spacing" textLength="81" x="407.5" y="424.335">DTO envelope]</text><line style="stroke:#181818;stroke-width:1.0;" x1="536.5" x2="578.5" y1="470.768" y2="470.768"/><line style="stroke:#181818;stroke-width:1.0;" x1="578.5" x2="578.5" y1="470.768" y2="483.768"/><line style="stroke:#181818;stroke-width:1.0;" x1="537.5" x2="578.5" y1="483.768" y2="483.768"/><polygon fill="#181818" points="547.5,479.768,537.5,483.768,547.5,487.768,543.5,483.768" style="stroke:#181818;stroke-width:1.0;"/><text fill="#000000" font-family="D-DIN" font-size="13" lengthAdjust="spacing" textLength="108" x="543.5" y="452.453">Unwrap MassTransit</text><text fill="#000000" font-family="D-DIN" font-size="13" lengthAdjust="spacing" textLength="95" x="543.5" y="466.571">ConsumeContext</text><polygon fill="#181818" points="648,507.886,658,511.886,648,515.886,652,511.886" style="stroke:#181818;stroke-width:1.0;"/><line style="stroke:#181818;stroke-width:1.0;" x1="536.5" x2="654" y1="511.886" y2="511.886"/><text fill="#000000" font-family="D-DIN" font-size="13" lengthAdjust="spacing" textLength="82" x="543.5" y="507.689">Command DTO</text><polygon fill="#181818" points="784,536.004,794,540.004,784,544.004,788,540.004" style="stroke:#181818;stroke-width:1.0;"/><line style="stroke:#181818;stroke-width:1.0;" x1="670" x2="790" y1="540.004" y2="540.004"/><text fill="#000000" font-family="D-DIN" font-size="13" lengthAdjust="spacing" textLength="82" x="677" y="535.807">Command DTO</text><polygon fill="#181818" points="681,564.122,671,568.122,681,572.122,677,568.122" style="stroke:#181818;stroke-width:1.0;"/><line style="stroke:#181818;stroke-width:1.0;" x1="675" x2="800" y1="568.122" y2="568.122"/><text fill="#000000" font-family="D-DIN" font-size="13" lengthAdjust="spacing" textLength="102" x="687" y="563.925">Domain Command</text><line style="stroke:#181818;stroke-width:1.0;" x1="670" x2="712" y1="635.358" y2="635.358"/><line style="stroke:#181818;stroke-width:1.0;" x1="712" x2="712" y1="635.358" y2="648.358"/><line style="stroke:#181818;stroke-width:1.0;" x1="671" x2="712" y1="648.358" y2="648.358"/><polygon fill="#181818" points="681,644.358,671,648.358,681,652.358,677,648.358" style="stroke:#181818;stroke-width:1.0;"/><text fill="#000000" font-family="D-DIN" font-size="13" lengthAdjust="spacing" textLength="112" x="677" y="617.043">EventStream Id from</text><text fill="#000000" font-family="D-DIN" font-size="13" lengthAdjust="spacing" textLength="102" x="677" y="631.161">Domain Command</text><polygon fill="#181818" points="1047,686.594,1057,690.594,1047,694.594,1051,690.594" style="stroke:#181818;stroke-width:1.0;"/><line style="stroke:#181818;stroke-width:1.0;" x1="670" x2="1053" y1="690.594" y2="690.594"/><text fill="#000000" font-family="D-DIN" font-size="13" lengthAdjust="spacing" textLength="92" x="677" y="672.279">Get current state</text><text fill="#000000" font-family="D-DIN" font-size="13" lengthAdjust="spacing" textLength="101" x="677" y="686.397">for EventStream Id</text><polygon fill="#181818" points="1263.5,714.712,1273.5,718.712,1263.5,722.712,1267.5,718.712" style="stroke:#181818;stroke-width:1.0;"/><line style="stroke:#181818;stroke-width:1.0;" x1="1074" x2="1269.5" y1="718.712" y2="718.712"/><text fill="#000000" font-family="D-DIN" font-size="13" lengthAdjust="spacing" textLength="59" x="1081" y="714.515">Get events</text><polygon fill="#181818" points="1085,742.83,1075,746.83,1085,750.83,1081,746.83" style="stroke:#181818;stroke-width:1.0;"/><line style="stroke:#181818;stroke-width:1.0;" x1="1079" x2="1274.5" y1="746.83" y2="746.83"/><text fill="#000000" font-family="D-DIN" font-size="13" lengthAdjust="spacing" textLength="76" x="1091" y="742.633">Event DTO list</text><path d="M748,761.83 L818,761.83 L818,767.948 L808,777.948 L748,777.948 L748,761.83 " fill="#EEEEEE" style="stroke:#000000;stroke-width:1.5;"/><rect fill="none" height="128.59" style="stroke:#000000;stroke-width:1.5;" width="497" x="748" y="761.83"/><text fill="#000000" font-family="D-DIN" font-size="13" font-weight="bold" lengthAdjust="spacing" textLength="25" x="763" y="774.751">loop</text><text fill="#000000" font-family="D-DIN" font-size="11" font-weight="bold" lengthAdjust="spacing" textLength="99" x="833" y="773.917">[for each event DTO]</text><polygon fill="#181818" points="1163,794.066,1173,798.066,1163,802.066,1167,798.066" style="stroke:#181818;stroke-width:1.0;"/><line style="stroke:#181818;stroke-width:1.0;" x1="1074" x2="1169" y1="798.066" y2="798.066"/><text fill="#000000" font-family="D-DIN" font-size="13" lengthAdjust="spacing" textLength="56" x="1081" y="793.869">Event DTO</text><polygon fill="#181818" points="817,822.184,807,826.184,817,830.184,813,826.184" style="stroke:#181818;stroke-width:1.0;"/><line style="stroke:#181818;stroke-width:1.0;" x1="811" x2="1174" y1="826.184" y2="826.184"/><text fill="#000000" font-family="D-DIN" font-size="13" lengthAdjust="spacing" textLength="56" x="823" y="821.987">Event DTO</text><polygon fill="#181818" points="1163,850.302,1173,854.302,1163,858.302,1167,854.302" style="stroke:#181818;stroke-width:1.0;"/><line style="stroke:#181818;stroke-width:1.0;" x1="801" x2="1169" y1="854.302" y2="854.302"/><text fill="#000000" font-family="D-DIN" font-size="13" lengthAdjust="spacing" textLength="76" x="808" y="850.105">Domain Event</text><polygon fill="#181818" points="1085,878.42,1075,882.42,1085,886.42,1081,882.42" style="stroke:#181818;stroke-width:1.0;"/><line style="stroke:#181818;stroke-width:1.0;" x1="1079" x2="1179" y1="882.42" y2="882.42"/><text fill="#000000" font-family="D-DIN" font-size="13" lengthAdjust="spacing" textLength="76" x="1091" y="878.223">Domain Event</text><polygon fill="#181818" points="906.5,913.538,896.5,917.538,906.5,921.538,902.5,917.538" style="stroke:#181818;stroke-width:1.0;"/><line style="stroke:#181818;stroke-width:1.0;" x1="900.5" x2="1063" y1="917.538" y2="917.538"/><text fill="#000000" font-family="D-DIN" font-size="13" lengthAdjust="spacing" textLength="82" x="912.5" y="913.341">Get initial state</text><polygon fill="#181818" points="1052,941.656,1062,945.656,1052,949.656,1056,945.656" style="stroke:#181818;stroke-width:1.0;"/><line style="stroke:#181818;stroke-width:1.0;" x1="895.5" x2="1058" y1="945.656" y2="945.656"/><text fill="#000000" font-family="D-DIN" font-size="13" lengthAdjust="spacing" textLength="100" x="902.5" y="941.459">state = initial state</text><path d="M844,960.656 L914,960.656 L914,966.774 L904,976.774 L844,976.774 L844,960.656 " fill="#EEEEEE" style="stroke:#000000;stroke-width:1.5;"/><rect fill="none" height="72.354" style="stroke:#000000;stroke-width:1.5;" width="281" x="844" y="960.656"/><text fill="#000000" font-family="D-DIN" font-size="13" font-weight="bold" lengthAdjust="spacing" textLength="25" x="859" y="973.577">loop</text><text fill="#000000" font-family="D-DIN" font-size="11" font-weight="bold" lengthAdjust="spacing" textLength="134" x="929" y="972.743">[for each domain event evt]</text><polygon fill="#181818" points="906.5,992.892,896.5,996.892,906.5,1000.892,902.5,996.892" style="stroke:#181818;stroke-width:1.0;"/><line style="stroke:#181818;stroke-width:1.0;" x1="900.5" x2="1063" y1="996.892" y2="996.892"/><text fill="#000000" font-family="D-DIN" font-size="13" lengthAdjust="spacing" textLength="94" x="912.5" y="992.695">evt |&gt; apply state</text><polygon fill="#181818" points="1052,1021.01,1062,1025.01,1052,1029.01,1056,1025.01" style="stroke:#181818;stroke-width:1.0;"/><line style="stroke:#181818;stroke-width:1.0;" x1="895.5" x2="1058" y1="1025.01" y2="1025.01"/><text fill="#000000" font-family="D-DIN" font-size="13" lengthAdjust="spacing" textLength="27" x="902.5" y="1020.813">state</text><polygon fill="#181818" points="681,1056.128,671,1060.128,681,1064.128,677,1060.128" style="stroke:#181818;stroke-width:1.0;"/><line style="stroke:#181818;stroke-width:1.0;" x1="675" x2="1058" y1="1060.128" y2="1060.128"/><text fill="#000000" font-family="D-DIN" font-size="13" lengthAdjust="spacing" textLength="28" x="687" y="1055.931">State</text><rect fill="#EEEEEE" height="3" style="stroke:#EEEEEE;stroke-width:1.0;" width="1321" x="0" y="1138.187"/><line style="stroke:#000000;stroke-width:1.0;" x1="0" x2="1321" y1="1138.187" y2="1138.187"/><line style="stroke:#000000;stroke-width:1.0;" x1="0" x2="1321" y1="1141.187" y2="1141.187"/><rect fill="#EEEEEE" height="22.118" style="stroke:#000000;stroke-width:2.0;" width="174" x="573.5" y="1128.128"/><text fill="#000000" font-family="D-DIN" font-size="13" font-weight="bold" lengthAdjust="spacing" textLength="157" x="579.5" y="1144.049">Domain Command Handling</text><polygon fill="#181818" points="953,1176.364,963,1180.364,953,1184.364,957,1180.364" style="stroke:#181818;stroke-width:1.0;"/><line style="stroke:#181818;stroke-width:1.0;" x1="670" x2="959" y1="1180.364" y2="1180.364"/><text fill="#000000" font-family="D-DIN" font-size="13" lengthAdjust="spacing" textLength="142" x="677" y="1176.167">Handle domain command</text><polygon fill="#181818" points="681,1204.482,671,1208.482,681,1212.482,677,1208.482" style="stroke:#181818;stroke-width:1.0;"/><line style="stroke:#181818;stroke-width:1.0;" x1="675" x2="969" y1="1208.482" y2="1208.482"/><text fill="#000000" font-family="D-DIN" font-size="13" lengthAdjust="spacing" textLength="109" x="687" y="1204.285">New domain events</text><rect fill="#EEEEEE" height="3" style="stroke:#EEEEEE;stroke-width:1.0;" width="1321" x="0" y="1229.482"/><line style="stroke:#000000;stroke-width:1.0;" x1="0" x2="1321" y1="1229.482" y2="1229.482"/><line style="stroke:#000000;stroke-width:1.0;" x1="0" x2="1321" y1="1232.482" y2="1232.482"/><polygon fill="#181818" points="1052,1310.6,1062,1314.6,1052,1318.6,1056,1314.6" style="stroke:#181818;stroke-width:1.0;"/><line style="stroke:#181818;stroke-width:1.0;" x1="670" x2="1058" y1="1314.6" y2="1314.6"/><text fill="#000000" font-family="D-DIN" font-size="13" lengthAdjust="spacing" textLength="83" x="677" y="1310.403">Append events</text><path d="M748,1329.6 L818,1329.6 L818,1335.718 L808,1345.718 L748,1345.718 L748,1329.6 " fill="#EEEEEE" style="stroke:#000000;stroke-width:1.5;"/><rect fill="none" height="128.59" style="stroke:#000000;stroke-width:1.5;" width="497" x="748" y="1329.6"/><text fill="#000000" font-family="D-DIN" font-size="13" font-weight="bold" lengthAdjust="spacing" textLength="25" x="763" y="1342.521">loop</text><text fill="#000000" font-family="D-DIN" font-size="11" font-weight="bold" lengthAdjust="spacing" textLength="116" x="833" y="1341.687">[for each domain event]</text><polygon fill="#181818" points="1163,1361.836,1173,1365.836,1163,1369.836,1167,1365.836" style="stroke:#181818;stroke-width:1.0;"/><line style="stroke:#181818;stroke-width:1.0;" x1="1074" x2="1169" y1="1365.836" y2="1365.836"/><text fill="#000000" font-family="D-DIN" font-size="13" lengthAdjust="spacing" textLength="76" x="1081" y="1361.639">Domain Event</text><polygon fill="#181818" points="817,1389.954,807,1393.954,817,1397.954,813,1393.954" style="stroke:#181818;stroke-width:1.0;"/><line style="stroke:#181818;stroke-width:1.0;" x1="811" x2="1174" y1="1393.954" y2="1393.954"/><text fill="#000000" font-family="D-DIN" font-size="13" lengthAdjust="spacing" textLength="76" x="823" y="1389.757">Domain Event</text><polygon fill="#181818" points="1163,1418.072,1173,1422.072,1163,1426.072,1167,1422.072" style="stroke:#181818;stroke-width:1.0;"/><line style="stroke:#181818;stroke-width:1.0;" x1="801" x2="1169" y1="1422.072" y2="1422.072"/><text fill="#000000" font-family="D-DIN" font-size="13" lengthAdjust="spacing" textLength="56" x="808" y="1417.875">Event DTO</text><polygon fill="#181818" points="1085,1446.19,1075,1450.19,1085,1454.19,1081,1450.19" style="stroke:#181818;stroke-width:1.0;"/><line style="stroke:#181818;stroke-width:1.0;" x1="1079" x2="1179" y1="1450.19" y2="1450.19"/><text fill="#000000" font-family="D-DIN" font-size="13" lengthAdjust="spacing" textLength="56" x="1091" y="1445.993">Event DTO</text><polygon fill="#181818" points="1052,1481.308,1062,1485.308,1052,1489.308,1056,1485.308" style="stroke:#181818;stroke-width:1.0;"/><line style="stroke:#181818;stroke-width:1.0;" x1="670" x2="1058" y1="1485.308" y2="1485.308"/><text fill="#000000" font-family="D-DIN" font-size="13" lengthAdjust="spacing" textLength="26" x="677" y="1481.111">Save</text><polygon fill="#181818" points="247.5,1509.426,237.5,1513.426,247.5,1517.426,243.5,1513.426" style="stroke:#181818;stroke-width:1.0;"/><line style="stroke:#181818;stroke-width:1.0;" x1="241.5" x2="1063" y1="1513.426" y2="1513.426"/><text fill="#000000" font-family="D-DIN" font-size="13" lengthAdjust="spacing" textLength="121" x="253.5" y="1509.229">Publish events (DTOs)</text><polygon fill="#181818" points="383.5,1537.544,393.5,1541.544,383.5,1545.544,387.5,1541.544" style="stroke:#181818;stroke-width:1.0;"/><line style="stroke:#181818;stroke-width:1.0;" x1="236.5" x2="389.5" y1="1541.544" y2="1541.544"/><text fill="#000000" font-family="D-DIN" font-size="13" lengthAdjust="spacing" textLength="130" x="243.5" y="1537.347">Publish (DTO envelope)</text><polygon fill="#181818" points="1263.5,1595.662,1273.5,1599.662,1263.5,1603.662,1267.5,1599.662" style="stroke:#181818;stroke-width:1.0;"/><line style="stroke:#181818;stroke-width:1.0;" x1="1069" x2="1269.5" y1="1599.662" y2="1599.662"/><text fill="#000000" font-family="D-DIN" font-size="13" lengthAdjust="spacing" textLength="122" x="1076" y="1595.465">Append events (DTOs)</text><polygon fill="#181818" points="681,1609.662,671,1613.662,681,1617.662,677,1613.662" style="stroke:#181818;stroke-width:1.0;"/><line style="stroke:#181818;stroke-width:1.0;stroke-dasharray:2.0,2.0;" x1="675" x2="1063" y1="1613.662" y2="1613.662"/><polygon fill="#181818" points="547.5,1623.662,537.5,1627.662,547.5,1631.662,543.5,1627.662" style="stroke:#181818;stroke-width:1.0;"/><line style="stroke:#181818;stroke-width:1.0;stroke-dasharray:2.0,2.0;" x1="541.5" x2="664" y1="1627.662" y2="1627.662"/><polygon fill="#181818" points="406.5,1651.78,396.5,1655.78,406.5,1659.78,402.5,1655.78" style="stroke:#181818;stroke-width:1.0;"/><line style="stroke:#181818;stroke-width:1.0;stroke-dasharray:2.0,2.0;" x1="400.5" x2="530.5" y1="1655.78" y2="1655.78"/><text fill="#000000" font-family="D-DIN" font-size="13" lengthAdjust="spacing" textLength="19" x="412.5" y="1651.583">ack</text><text fill="#888888" font-family="D-DIN" font-size="10" lengthAdjust="spacing" textLength="42" x="1278" y="1790.97">Version 0.1</text><!--SRC=[hLTRRzem57xthpXYBzq3R7j5PHAZNTU7TfNezj9Ko2GkzPhOcUtGLUB7xyHEmCu5Q5KaI7mvtxbzvzZe9ovogcW62NkWHMg-Is6kQSPWS3OykxmU4BtTiQJnqqh9GYGpcKe57yxjXn33JSfW9XC6Gtna6HK9FE9FoiMAABvwDF0WfM4AVZEbkHJmUVI548GrFEOv5GO6ivGpOGP0DSJsbInBLLIzm61wSsaNQCv9Z0OgcSBWxaOgepzD4veZihwFH2IkcDPqnU1ReIDHhLZ9p2qi2xsWRfhyBLY1RdeYZPsUgccUfpoc1aqVNL6jRnKLcfj0vqmANMIrFhE8gt4tZ1MzO88f7aUY3jhPxSz8sCXLE8cHYseSXklkJ6QKEnYKWYkQvvvCPeVz8dD33Ol4ZP9_M5pQOoLrERl8jvC4qy3DIoWwNQqKM-56bv9wj3ynvsk4cXkfM9WNLixhSdwRbz3c0rZstNVU0xIlLI0IQkYIQiptJhgndn37EnX-BOasXdcnpBY9HEoI4xaoOAKTX69yrkYrfIH-Iw4snn23OLQt07SUTrpQc5YpLERiVeVOGTNs50m3XQzHbB1zghpLqZKo6eqW4e0FGZnIm-bm6EYlsFzcNxqvhtHyZQN3k-4OVebdHNC8r5HMuCEmVwOfxXNJ6BoI8plbVhrvxxMqOrCe7CZMTFD4JuU1gAka6i6FjoU_sMn8b_wjzHMB5SE-V9d0Wv8P1ha17SgtIsqC5yn0N2XLqbwxbl20dJr4ttdOKQtjgL2Nq-76Uu4wrZpmFWTS_PViIhas99KoXz83ZEgZ4x0v0lmSijJl5nwmbUqot6yl3NnlgScS7bmlztkmkgba8QrODvbwd4UmFkVt0VT40DiFwI53yrHnbE226qvJjxhBVli8whIyZMbdODB03GcHEBySBzZQxE55Mm7kXqrvDEJfIuNU7zaU-soOl62sl6rsZYxEsxERTAUahYRRGShlPDBeEF2ZkfZ1PE9o6xQ9xO4-TZjP7RMgiuUytHt_JIWqteEwPiz1z7MJLZiWj1Wjg-q_felXjQey_OveClrqU4EBQ5N9-tM9VkWtDOgmwRnNb-X5tTCY3h3sY6JFwPgzuKJgkfpT54iyDQfpGiC9kg8_lleY5jx3QimJ_yRJ2NhyHSoJEUAy3QgXTkfGuBjWmpl78OZErKP6mojSy-wpLHHSsnhnnV-WGMWyk9wG_GS0]--></g></svg>