<?xml version="1.0" encoding="us-ascii" standalone="no"?><svg xmlns="http://www.w3.org/2000/svg" xmlns:xlink="http://www.w3.org/1999/xlink" contentStyleType="text/css" height="1714px" preserveAspectRatio="none" style="width:1280px;height:1714px;background:#EEEEEE;" version="1.1" viewBox="0 0 1280 1714" width="1280px" zoomAndPan="magnify"><defs/><g><rect fill="#EEEEEE" height="1714" style="stroke:none;stroke-width:1.0;" width="1280" x="0" y="0"/><text fill="#000000" font-family="D-DIN" font-size="14" font-weight="bold" lengthAdjust="spacing" textLength="150" x="561" y="27.8379">Code - Command handling</text><rect fill="#FFFFFF" height="112.7081" style="stroke:#181818;stroke-width:1.0;" width="10" x="110.5" y="207.5776"/><rect fill="#FFFFFF" height="56.354" style="stroke:#181818;stroke-width:1.0;" width="10" x="226.5" y="263.9317"/><rect fill="#FFFFFF" height="1141.0125" style="stroke:#181818;stroke-width:1.0;" width="10" x="342.5" y="428.5316"/><rect fill="#FFFFFF" height="1141.0125" style="stroke:#181818;stroke-width:1.0;" width="10" x="478.5" y="428.5316"/><rect fill="#FFFFFF" height="1029.5404" style="stroke:#181818;stroke-width:1.0;" width="10" x="612" y="511.8856"/><rect fill="#FFFFFF" height="28.118" style="stroke:#181818;stroke-width:1.0;" width="10" x="748" y="540.0036"/><rect fill="#FFFFFF" height="28.118" style="stroke:#181818;stroke-width:1.0;" width="10" x="748" y="826.1838"/><rect fill="#FFFFFF" height="28.118" style="stroke:#181818;stroke-width:1.0;" width="10" x="748" y="1393.954"/><rect fill="#FFFFFF" height="122.4721" style="stroke:#181818;stroke-width:1.0;" width="10" x="837.5" y="917.5378"/><rect fill="#FFFFFF" height="28.118" style="stroke:#181818;stroke-width:1.0;" width="10" x="917" y="1180.3639"/><rect fill="#FFFFFF" height="836.8323" style="stroke:#181818;stroke-width:1.0;" width="10" x="1011" y="690.5937"/><rect fill="#FFFFFF" height="341.4162" style="stroke:#181818;stroke-width:1.0;" width="10" x="1016" y="718.7117"/><rect fill="#FFFFFF" height="150.5901" style="stroke:#181818;stroke-width:1.0;" width="10" x="1016" y="1314.5999"/><rect fill="#FFFFFF" height="28.118" style="stroke:#181818;stroke-width:1.0;" width="10" x="1016" y="1485.308"/><rect fill="#FFFFFF" height="84.354" style="stroke:#181818;stroke-width:1.0;" width="10" x="1127" y="798.0658"/><rect fill="#FFFFFF" height="84.354" style="stroke:#181818;stroke-width:1.0;" width="10" x="1127" y="1365.836"/><rect fill="#FFFFFF" height="808.7143" style="stroke:#181818;stroke-width:1.0;" width="10" x="1227.5" y="718.7117"/><rect fill="none" height="128.5901" style="stroke:#000000;stroke-width:1.5;" width="497" x="700" y="761.8297"/><rect fill="none" height="72.354" style="stroke:#000000;stroke-width:1.5;" width="281" x="796" y="960.6558"/><rect fill="none" height="128.5901" style="stroke:#000000;stroke-width:1.5;" width="497" x="700" y="1329.5999"/><line style="stroke:#181818;stroke-width:0.5;stroke-dasharray:5.0,5.0;" x1="29" x2="29" y1="149.2236" y2="328.2857"/><line style="stroke:#A80036;stroke-width:1.0;stroke-dasharray:1.0,4.0;" x1="29" x2="29" y1="328.2857" y2="380.1775"/><line style="stroke:#181818;stroke-width:0.5;stroke-dasharray:5.0,5.0;" x1="29" x2="29" y1="380.1775" y2="1587.544"/><line style="stroke:#181818;stroke-width:0.5;stroke-dasharray:5.0,5.0;" x1="115" x2="115" y1="149.2236" y2="328.2857"/><line style="stroke:#A80036;stroke-width:1.0;stroke-dasharray:1.0,4.0;" x1="115" x2="115" y1="328.2857" y2="380.1775"/><line style="stroke:#181818;stroke-width:0.5;stroke-dasharray:5.0,5.0;" x1="115" x2="115" y1="380.1775" y2="1587.544"/><line style="stroke:#181818;stroke-width:0.5;stroke-dasharray:5.0,5.0;" x1="231.5" x2="231.5" y1="149.2236" y2="328.2857"/><line style="stroke:#A80036;stroke-width:1.0;stroke-dasharray:1.0,4.0;" x1="231.5" x2="231.5" y1="328.2857" y2="380.1775"/><line style="stroke:#181818;stroke-width:0.5;stroke-dasharray:5.0,5.0;" x1="231.5" x2="231.5" y1="380.1775" y2="1587.544"/><line style="stroke:#181818;stroke-width:0.5;stroke-dasharray:5.0,5.0;" x1="347.5" x2="347.5" y1="149.2236" y2="328.2857"/><line style="stroke:#A80036;stroke-width:1.0;stroke-dasharray:1.0,4.0;" x1="347.5" x2="347.5" y1="328.2857" y2="380.1775"/><line style="stroke:#181818;stroke-width:0.5;stroke-dasharray:5.0,5.0;" x1="347.5" x2="347.5" y1="380.1775" y2="1587.544"/><line style="stroke:#181818;stroke-width:0.5;stroke-dasharray:5.0,5.0;" x1="483.5" x2="483.5" y1="149.2236" y2="328.2857"/><line style="stroke:#A80036;stroke-width:1.0;stroke-dasharray:1.0,4.0;" x1="483.5" x2="483.5" y1="328.2857" y2="380.1775"/><line style="stroke:#181818;stroke-width:0.5;stroke-dasharray:5.0,5.0;" x1="483.5" x2="483.5" y1="380.1775" y2="1587.544"/><line style="stroke:#181818;stroke-width:0.5;stroke-dasharray:5.0,5.0;" x1="616.5" x2="616.5" y1="149.2236" y2="328.2857"/><line style="stroke:#A80036;stroke-width:1.0;stroke-dasharray:1.0,4.0;" x1="616.5" x2="616.5" y1="328.2857" y2="380.1775"/><line style="stroke:#181818;stroke-width:0.5;stroke-dasharray:5.0,5.0;" x1="616.5" x2="616.5" y1="380.1775" y2="1587.544"/><line style="stroke:#181818;stroke-width:0.5;stroke-dasharray:5.0,5.0;" x1="753" x2="753" y1="149.2236" y2="328.2857"/><line style="stroke:#A80036;stroke-width:1.0;stroke-dasharray:1.0,4.0;" x1="753" x2="753" y1="328.2857" y2="380.1775"/><line style="stroke:#181818;stroke-width:0.5;stroke-dasharray:5.0,5.0;" x1="753" x2="753" y1="380.1775" y2="1587.544"/><line style="stroke:#181818;stroke-width:0.5;stroke-dasharray:5.0,5.0;" x1="842" x2="842" y1="149.2236" y2="328.2857"/><line style="stroke:#A80036;stroke-width:1.0;stroke-dasharray:1.0,4.0;" x1="842" x2="842" y1="328.2857" y2="380.1775"/><line style="stroke:#181818;stroke-width:0.5;stroke-dasharray:5.0,5.0;" x1="842" x2="842" y1="380.1775" y2="1587.544"/><line style="stroke:#181818;stroke-width:0.5;stroke-dasharray:5.0,5.0;" x1="922" x2="922" y1="149.2236" y2="328.2857"/><line style="stroke:#A80036;stroke-width:1.0;stroke-dasharray:1.0,4.0;" x1="922" x2="922" y1="328.2857" y2="380.1775"/><line style="stroke:#181818;stroke-width:0.5;stroke-dasharray:5.0,5.0;" x1="922" x2="922" y1="380.1775" y2="1587.544"/><line style="stroke:#181818;stroke-width:0.5;stroke-dasharray:5.0,5.0;" x1="1016" x2="1016" y1="149.2236" y2="328.2857"/><line style="stroke:#A80036;stroke-width:1.0;stroke-dasharray:1.0,4.0;" x1="1016" x2="1016" y1="328.2857" y2="380.1775"/><line style="stroke:#181818;stroke-width:0.5;stroke-dasharray:5.0,5.0;" x1="1016" x2="1016" y1="380.1775" y2="1587.544"/><line style="stroke:#181818;stroke-width:0.5;stroke-dasharray:5.0,5.0;" x1="1132" x2="1132" y1="149.2236" y2="328.2857"/><line style="stroke:#A80036;stroke-width:1.0;stroke-dasharray:1.0,4.0;" x1="1132" x2="1132" y1="328.2857" y2="380.1775"/><line style="stroke:#181818;stroke-width:0.5;stroke-dasharray:5.0,5.0;" x1="1132" x2="1132" y1="380.1775" y2="1587.544"/><line style="stroke:#181818;stroke-width:0.5;stroke-dasharray:5.0,5.0;" x1="1232" x2="1232" y1="149.2236" y2="328.2857"/><line style="stroke:#A80036;stroke-width:1.0;stroke-dasharray:1.0,4.0;" x1="1232" x2="1232" y1="328.2857" y2="380.1775"/><line style="stroke:#181818;stroke-width:0.5;stroke-dasharray:5.0,5.0;" x1="1232" x2="1232" y1="380.1775" y2="1587.544"/><rect fill="#E2E2F0" height="29.2039" rx="2.5" ry="2.5" style="stroke:#181818;stroke-width:0.5;" width="49" x="5" y="119.0197"/><text fill="#000000" font-family="D-DIN" font-size="14" lengthAdjust="spacing" textLength="35" x="12" y="138.8576">Client</text><rect fill="#E2E2F0" height="29.2039" rx="2.5" ry="2.5" style="stroke:#181818;stroke-width:0.5;" width="49" x="5" y="1586.544"/><text fill="#000000" font-family="D-DIN" font-size="14" lengthAdjust="spacing" textLength="35" x="12" y="1606.382">Client</text><text fill="#000000" font-family="D-DIN" font-size="14" lengthAdjust="spacing" textLength="19" x="103" y="146.8576">API</text><path d="M95,106.0197 L95,130.0197 M95,118.0197 L112,118.0197 " fill="none" style="stroke:#181818;stroke-width:0.5;"/><ellipse cx="124" cy="118.0197" fill="#E2E2F0" rx="12" ry="12" style="stroke:#181818;stroke-width:0.5;"/><text fill="#000000" font-family="D-DIN" font-size="14" lengthAdjust="spacing" textLength="19" x="103" y="1599.382">API</text><path d="M95,1605.748 L95,1629.748 M95,1617.748 L112,1617.748 " fill="none" style="stroke:#181818;stroke-width:0.5;"/><ellipse cx="124" cy="1617.748" fill="#E2E2F0" rx="12" ry="12" style="stroke:#181818;stroke-width:0.5;"/><text fill="#000000" font-family="D-DIN" font-size="14" lengthAdjust="spacing" textLength="96" x="180.5" y="101.2458">[Ports/Adapters]</text><text fill="#000000" font-family="D-DIN" font-size="14" lengthAdjust="spacing" textLength="3" x="227" y="116.4497">&#160;</text><text fill="#000000" font-family="D-DIN" font-size="14" lengthAdjust="spacing" textLength="76" x="190.5" y="131.6537">Message Bus</text><text fill="#000000" font-family="D-DIN" font-size="14" lengthAdjust="spacing" textLength="46" x="205.5" y="146.8576">Adapter</text><ellipse cx="231.5" cy="72.4079" fill="#E2E2F0" rx="12" ry="12" style="stroke:#181818;stroke-width:0.5;"/><polygon fill="#181818" points="227.5,60.4079,233.5,55.4079,231.5,60.4079,233.5,65.4079,227.5,60.4079" style="stroke:#181818;stroke-width:1.0;"/><text fill="#000000" font-family="D-DIN" font-size="14" lengthAdjust="spacing" textLength="96" x="180.5" y="1599.382">[Ports/Adapters]</text><text fill="#000000" font-family="D-DIN" font-size="14" lengthAdjust="spacing" textLength="3" x="227" y="1614.5859">&#160;</text><text fill="#000000" font-family="D-DIN" font-size="14" lengthAdjust="spacing" textLength="76" x="190.5" y="1629.7899">Message Bus</text><text fill="#000000" font-family="D-DIN" font-size="14" lengthAdjust="spacing" textLength="46" x="205.5" y="1644.9938">Adapter</text><ellipse cx="231.5" cy="1663.3598" fill="#E2E2F0" rx="12" ry="12" style="stroke:#181818;stroke-width:0.5;"/><polygon fill="#181818" points="227.5,1651.3598,233.5,1646.3598,231.5,1651.3598,233.5,1656.3598,227.5,1651.3598" style="stroke:#181818;stroke-width:1.0;"/><path d="M304.5,124.0197 L390.5,124.0197 C395.5,124.0197 395.5,136.6216 395.5,136.6216 C395.5,136.6216 395.5,149.2236 390.5,149.2236 L304.5,149.2236 C299.5,149.2236 299.5,136.6216 299.5,136.6216 C299.5,136.6216 299.5,124.0197 304.5,124.0197 " fill="#E2E2F0" style="stroke:#181818;stroke-width:0.5;"/><path d="M390.5,124.0197 C385.5,124.0197 385.5,136.6216 385.5,136.6216 C385.5,149.2236 390.5,149.2236 390.5,149.2236 " fill="none" style="stroke:#181818;stroke-width:0.5;"/><text fill="#000000" font-family="D-DIN" font-size="14" lengthAdjust="spacing" textLength="76" x="304.5" y="141.8576">Message Bus</text><path d="M304.5,1586.544 L390.5,1586.544 C395.5,1586.544 395.5,1599.146 395.5,1599.146 C395.5,1599.146 395.5,1611.748 390.5,1611.748 L304.5,1611.748 C299.5,1611.748 299.5,1599.146 299.5,1599.146 C299.5,1599.146 299.5,1586.544 304.5,1586.544 " fill="#E2E2F0" style="stroke:#181818;stroke-width:0.5;"/><path d="M390.5,1586.544 C385.5,1586.544 385.5,1599.146 385.5,1599.146 C385.5,1611.748 390.5,1611.748 390.5,1611.748 " fill="none" style="stroke:#181818;stroke-width:0.5;"/><text fill="#000000" font-family="D-DIN" font-size="14" lengthAdjust="spacing" textLength="76" x="304.5" y="1604.382">Message Bus</text><text fill="#000000" font-family="D-DIN" font-size="14" lengthAdjust="spacing" textLength="146" x="407.5" y="116.4497">[Application.MassTransit]</text><text fill="#000000" font-family="D-DIN" font-size="14" lengthAdjust="spacing" textLength="3" x="479" y="131.6537">&#160;</text><text fill="#000000" font-family="D-DIN" font-size="14" lengthAdjust="spacing" textLength="114" x="423.5" y="146.8576">Message Consumer</text><ellipse cx="483.5" cy="87.6118" fill="#E2E2F0" rx="12" ry="12" style="stroke:#181818;stroke-width:0.5;"/><polygon fill="#181818" points="479.5,75.6118,485.5,70.6118,483.5,75.6118,485.5,80.6118,479.5,75.6118" style="stroke:#181818;stroke-width:1.0;"/><text fill="#000000" font-family="D-DIN" font-size="14" lengthAdjust="spacing" textLength="146" x="407.5" y="1599.382">[Application.MassTransit]</text><text fill="#000000" font-family="D-DIN" font-size="14" lengthAdjust="spacing" textLength="3" x="479" y="1614.5859">&#160;</text><text fill="#000000" font-family="D-DIN" font-size="14" lengthAdjust="spacing" textLength="114" x="423.5" y="1629.7899">Message Consumer</text><ellipse cx="483.5" cy="1648.1558" fill="#E2E2F0" rx="12" ry="12" style="stroke:#181818;stroke-width:0.5;"/><polygon fill="#181818" points="479.5,1636.1558,485.5,1631.1558,483.5,1636.1558,485.5,1641.1558,479.5,1636.1558" style="stroke:#181818;stroke-width:1.0;"/><text fill="#000000" font-family="D-DIN" font-size="14" lengthAdjust="spacing" textLength="73" x="577.5" y="86.0419">[Application]</text><text fill="#000000" font-family="D-DIN" font-size="14" lengthAdjust="spacing" textLength="3" x="612.5" y="101.2458">&#160;</text><text fill="#000000" font-family="D-DIN" font-size="14" lengthAdjust="spacing" textLength="45" x="591.5" y="116.4497">Generic</text><text fill="#000000" font-family="D-DIN" font-size="14" lengthAdjust="spacing" textLength="89" x="569.5" y="131.6537">Command DTO</text><text fill="#000000" font-family="D-DIN" font-size="14" lengthAdjust="spacing" textLength="44" x="592" y="146.8576">handler</text><ellipse cx="617" cy="57.2039" fill="#E2E2F0" rx="12" ry="12" style="stroke:#181818;stroke-width:0.5;"/><polygon fill="#181818" points="613,45.2039,619,40.2039,617,45.2039,619,50.2039,613,45.2039" style="stroke:#181818;stroke-width:1.0;"/><text fill="#000000" font-family="D-DIN" font-size="14" lengthAdjust="spacing" textLength="73" x="577.5" y="1599.382">[Application]</text><text fill="#000000" font-family="D-DIN" font-size="14" lengthAdjust="spacing" textLength="3" x="612.5" y="1614.5859">&#160;</text><text fill="#000000" font-family="D-DIN" font-size="14" lengthAdjust="spacing" textLength="45" x="591.5" y="1629.7899">Generic</text><text fill="#000000" font-family="D-DIN" font-size="14" lengthAdjust="spacing" textLength="89" x="569.5" y="1644.9938">Command DTO</text><text fill="#000000" font-family="D-DIN" font-size="14" lengthAdjust="spacing" textLength="44" x="592" y="1660.1977">handler</text><ellipse cx="617" cy="1678.5637" fill="#E2E2F0" rx="12" ry="12" style="stroke:#181818;stroke-width:0.5;"/><polygon fill="#181818" points="613,1666.5637,619,1661.5637,617,1666.5637,619,1671.5637,613,1666.5637" style="stroke:#181818;stroke-width:1.0;"/><rect fill="#E2E2F0" height="59.6118" rx="2.5" ry="2.5" style="stroke:#181818;stroke-width:0.5;" width="86" x="710" y="88.6118"/><text fill="#000000" font-family="D-DIN" font-size="14" lengthAdjust="spacing" textLength="53" x="726.5" y="108.4497">[Domain]</text><text fill="#000000" font-family="D-DIN" font-size="14" lengthAdjust="spacing" textLength="3" x="751.5" y="123.6537">&#160;</text><text fill="#000000" font-family="D-DIN" font-size="14" lengthAdjust="spacing" textLength="72" x="717" y="138.8576">DTO Mapper</text><rect fill="#E2E2F0" height="59.6118" rx="2.5" ry="2.5" style="stroke:#181818;stroke-width:0.5;" width="86" x="710" y="1586.544"/><text fill="#000000" font-family="D-DIN" font-size="14" lengthAdjust="spacing" textLength="53" x="726.5" y="1606.382">[Domain]</text><text fill="#000000" font-family="D-DIN" font-size="14" lengthAdjust="spacing" textLength="3" x="751.5" y="1621.5859">&#160;</text><text fill="#000000" font-family="D-DIN" font-size="14" lengthAdjust="spacing" textLength="72" x="717" y="1636.7899">DTO Mapper</text><rect fill="#E2E2F0" height="74.8157" rx="2.5" ry="2.5" style="stroke:#181818;stroke-width:0.5;" width="73" x="806" y="73.4079"/><text fill="#000000" font-family="D-DIN" font-size="14" lengthAdjust="spacing" textLength="53" x="816" y="93.2458">[Domain]</text><text fill="#000000" font-family="D-DIN" font-size="14" lengthAdjust="spacing" textLength="3" x="841" y="108.4497">&#160;</text><text fill="#000000" font-family="D-DIN" font-size="14" lengthAdjust="spacing" textLength="32" x="826.5" y="123.6537">State</text><text fill="#000000" font-family="D-DIN" font-size="14" lengthAdjust="spacing" textLength="59" x="813" y="138.8576">Projection</text><rect fill="#E2E2F0" height="74.8157" rx="2.5" ry="2.5" style="stroke:#181818;stroke-width:0.5;" width="73" x="806" y="1586.544"/><text fill="#000000" font-family="D-DIN" font-size="14" lengthAdjust="spacing" textLength="53" x="816" y="1606.382">[Domain]</text><text fill="#000000" font-family="D-DIN" font-size="14" lengthAdjust="spacing" textLength="3" x="841" y="1621.5859">&#160;</text><text fill="#000000" font-family="D-DIN" font-size="14" lengthAdjust="spacing" textLength="32" x="826.5" y="1636.7899">State</text><text fill="#000000" font-family="D-DIN" font-size="14" lengthAdjust="spacing" textLength="59" x="813" y="1651.9938">Projection</text><text fill="#000000" font-family="D-DIN" font-size="14" lengthAdjust="spacing" textLength="53" x="892.5" y="116.4497">[Domain]</text><text fill="#000000" font-family="D-DIN" font-size="14" lengthAdjust="spacing" textLength="3" x="917.5" y="131.6537">&#160;</text><text fill="#000000" font-family="D-DIN" font-size="14" lengthAdjust="spacing" textLength="60" x="889" y="146.8576">Aggregate</text><ellipse cx="922" cy="87.6118" fill="#E2E2F0" rx="12" ry="12" style="stroke:#181818;stroke-width:0.5;"/><line style="stroke:#181818;stroke-width:0.5;" x1="910" x2="934" y1="101.6118" y2="101.6118"/><text fill="#000000" font-family="D-DIN" font-size="14" lengthAdjust="spacing" textLength="53" x="892.5" y="1599.382">[Domain]</text><text fill="#000000" font-family="D-DIN" font-size="14" lengthAdjust="spacing" textLength="3" x="917.5" y="1614.5859">&#160;</text><text fill="#000000" font-family="D-DIN" font-size="14" lengthAdjust="spacing" textLength="60" x="889" y="1629.7899">Aggregate</text><ellipse cx="922" cy="1648.1558" fill="#E2E2F0" rx="12" ry="12" style="stroke:#181818;stroke-width:0.5;"/><line style="stroke:#181818;stroke-width:0.5;" x1="910" x2="934" y1="1662.1558" y2="1662.1558"/><text fill="#000000" font-family="D-DIN" font-size="14" lengthAdjust="spacing" textLength="96" x="965" y="101.2458">[Ports/Adapters]</text><text fill="#000000" font-family="D-DIN" font-size="14" lengthAdjust="spacing" textLength="3" x="1011.5" y="116.4497">&#160;</text><text fill="#000000" font-family="D-DIN" font-size="14" lengthAdjust="spacing" textLength="65" x="980.5" y="131.6537">EventStore</text><text fill="#000000" font-family="D-DIN" font-size="14" lengthAdjust="spacing" textLength="46" x="990" y="146.8576">Adapter</text><ellipse cx="1016" cy="72.4079" fill="#E2E2F0" rx="12" ry="12" style="stroke:#181818;stroke-width:0.5;"/><polygon fill="#181818" points="1012,60.4079,1018,55.4079,1016,60.4079,1018,65.4079,1012,60.4079" style="stroke:#181818;stroke-width:1.0;"/><text fill="#000000" font-family="D-DIN" font-size="14" lengthAdjust="spacing" textLength="96" x="965" y="1599.382">[Ports/Adapters]</text><text fill="#000000" font-family="D-DIN" font-size="14" lengthAdjust="spacing" textLength="3" x="1011.5" y="1614.5859">&#160;</text><text fill="#000000" font-family="D-DIN" font-size="14" lengthAdjust="spacing" textLength="65" x="980.5" y="1629.7899">EventStore</text><text fill="#000000" font-family="D-DIN" font-size="14" lengthAdjust="spacing" textLength="46" x="990" y="1644.9938">Adapter</text><ellipse cx="1016" cy="1663.3598" fill="#E2E2F0" rx="12" ry="12" style="stroke:#181818;stroke-width:0.5;"/><polygon fill="#181818" points="1012,1651.3598,1018,1646.3598,1016,1651.3598,1018,1656.3598,1012,1651.3598" style="stroke:#181818;stroke-width:1.0;"/><rect fill="#E2E2F0" height="74.8157" rx="2.5" ry="2.5" style="stroke:#181818;stroke-width:0.5;" width="110" x="1077" y="73.4079"/><text fill="#000000" font-family="D-DIN" font-size="14" lengthAdjust="spacing" textLength="96" x="1084" y="93.2458">[Ports/Adapters]</text><text fill="#000000" font-family="D-DIN" font-size="14" lengthAdjust="spacing" textLength="3" x="1130.5" y="108.4497">&#160;</text><text fill="#000000" font-family="D-DIN" font-size="14" lengthAdjust="spacing" textLength="65" x="1099.5" y="123.6537">EventStore</text><text fill="#000000" font-family="D-DIN" font-size="14" lengthAdjust="spacing" textLength="80" x="1092" y="138.8576">Event Mapper</text><rect fill="#E2E2F0" height="74.8157" rx="2.5" ry="2.5" style="stroke:#181818;stroke-width:0.5;" width="110" x="1077" y="1586.544"/><text fill="#000000" font-family="D-DIN" font-size="14" lengthAdjust="spacing" textLength="96" x="1084" y="1606.382">[Ports/Adapters]</text><text fill="#000000" font-family="D-DIN" font-size="14" lengthAdjust="spacing" textLength="3" x="1130.5" y="1621.5859">&#160;</text><text fill="#000000" font-family="D-DIN" font-size="14" lengthAdjust="spacing" textLength="65" x="1099.5" y="1636.7899">EventStore</text><text fill="#000000" font-family="D-DIN" font-size="14" lengthAdjust="spacing" textLength="80" x="1092" y="1651.9938">Event Mapper</text><text fill="#000000" font-family="D-DIN" font-size="14" lengthAdjust="spacing" textLength="65" x="1197" y="146.8576">EventStore</text><path d="M1214.5,98.0197 C1214.5,88.0197 1232.5,88.0197 1232.5,88.0197 C1232.5,88.0197 1250.5,88.0197 1250.5,98.0197 L1250.5,124.0197 C1250.5,134.0197 1232.5,134.0197 1232.5,134.0197 C1232.5,134.0197 1214.5,134.0197 1214.5,124.0197 L1214.5,98.0197 " fill="#E2E2F0" style="stroke:#181818;stroke-width:1.5;"/><path d="M1214.5,98.0197 C1214.5,108.0197 1232.5,108.0197 1232.5,108.0197 C1232.5,108.0197 1250.5,108.0197 1250.5,98.0197 " fill="none" style="stroke:#181818;stroke-width:1.5;"/><text fill="#000000" font-family="D-DIN" font-size="14" lengthAdjust="spacing" textLength="65" x="1197" y="1599.382">EventStore</text><path d="M1214.5,1611.748 C1214.5,1601.748 1232.5,1601.748 1232.5,1601.748 C1232.5,1601.748 1250.5,1601.748 1250.5,1611.748 L1250.5,1637.748 C1250.5,1647.748 1232.5,1647.748 1232.5,1647.748 C1232.5,1647.748 1214.5,1647.748 1214.5,1637.748 L1214.5,1611.748 " fill="#E2E2F0" style="stroke:#181818;stroke-width:1.5;"/><path d="M1214.5,1611.748 C1214.5,1621.748 1232.5,1621.748 1232.5,1621.748 C1232.5,1621.748 1250.5,1621.748 1250.5,1611.748 " fill="none" style="stroke:#181818;stroke-width:1.5;"/><rect fill="#FFFFFF" height="112.7081" style="stroke:#181818;stroke-width:1.0;" width="10" x="110.5" y="207.5776"/><rect fill="#FFFFFF" height="56.354" style="stroke:#181818;stroke-width:1.0;" width="10" x="226.5" y="263.9317"/><rect fill="#FFFFFF" height="1141.0125" style="stroke:#181818;stroke-width:1.0;" width="10" x="342.5" y="428.5316"/><rect fill="#FFFFFF" height="1141.0125" style="stroke:#181818;stroke-width:1.0;" width="10" x="478.5" y="428.5316"/><rect fill="#FFFFFF" height="1029.5404" style="stroke:#181818;stroke-width:1.0;" width="10" x="612" y="511.8856"/><rect fill="#FFFFFF" height="28.118" style="stroke:#181818;stroke-width:1.0;" width="10" x="748" y="540.0036"/><rect fill="#FFFFFF" height="28.118" style="stroke:#181818;stroke-width:1.0;" width="10" x="748" y="826.1838"/><rect fill="#FFFFFF" height="28.118" style="stroke:#181818;stroke-width:1.0;" width="10" x="748" y="1393.954"/><rect fill="#FFFFFF" height="122.4721" style="stroke:#181818;stroke-width:1.0;" width="10" x="837.5" y="917.5378"/><rect fill="#FFFFFF" height="28.118" style="stroke:#181818;stroke-width:1.0;" width="10" x="917" y="1180.3639"/><rect fill="#FFFFFF" height="836.8323" style="stroke:#181818;stroke-width:1.0;" width="10" x="1011" y="690.5937"/><rect fill="#FFFFFF" height="341.4162" style="stroke:#181818;stroke-width:1.0;" width="10" x="1016" y="718.7117"/><rect fill="#FFFFFF" height="150.5901" style="stroke:#181818;stroke-width:1.0;" width="10" x="1016" y="1314.5999"/><rect fill="#FFFFFF" height="28.118" style="stroke:#181818;stroke-width:1.0;" width="10" x="1016" y="1485.308"/><rect fill="#FFFFFF" height="84.354" style="stroke:#181818;stroke-width:1.0;" width="10" x="1127" y="798.0658"/><rect fill="#FFFFFF" height="84.354" style="stroke:#181818;stroke-width:1.0;" width="10" x="1127" y="1365.836"/><rect fill="#FFFFFF" height="808.7143" style="stroke:#181818;stroke-width:1.0;" width="10" x="1227.5" y="718.7117"/><polygon fill="#181818" points="98.5,203.5776,108.5,207.5776,98.5,211.5776,102.5,207.5776" style="stroke:#181818;stroke-width:1.0;"/><line style="stroke:#181818;stroke-width:1.0;" x1="29.5" x2="104.5" y1="207.5776" y2="207.5776"/><text fill="#000000" font-family="D-DIN" font-size="13" lengthAdjust="spacing" textLength="39" x="36.5" y="175.1446">Submit</text><text fill="#000000" font-family="D-DIN" font-size="13" lengthAdjust="spacing" textLength="56" x="36.5" y="189.2626">command</text><text fill="#000000" font-family="D-DIN" font-size="13" lengthAdjust="spacing" textLength="62" x="36.5" y="203.3806">parameters</text><polygon fill="#181818" points="214.5,259.9317,224.5,263.9317,214.5,267.9317,218.5,263.9317" style="stroke:#181818;stroke-width:1.0;"/><line style="stroke:#181818;stroke-width:1.0;" x1="120.5" x2="220.5" y1="263.9317" y2="263.9317"/><text fill="#000000" font-family="D-DIN" font-size="13" lengthAdjust="spacing" textLength="87" x="127.5" y="231.4987">Send command</text><text fill="#000000" font-family="D-DIN" font-size="13" lengthAdjust="spacing" textLength="68" x="127.5" y="245.6167">[MassTransit</text><text fill="#000000" font-family="D-DIN" font-size="13" lengthAdjust="spacing" textLength="81" x="127.5" y="259.7347">DTO envelope]</text><polygon fill="#181818" points="335.5,316.2857,345.5,320.2857,335.5,324.2857,339.5,320.2857" style="stroke:#181818;stroke-width:1.0;"/><line style="stroke:#181818;stroke-width:1.0;stroke-dasharray:2.0,2.0;" x1="231.5" x2="341.5" y1="320.2857" y2="320.2857"/><text fill="#000000" font-family="D-DIN" font-size="13" lengthAdjust="spacing" textLength="87" x="238.5" y="287.8527">Send command</text><text fill="#000000" font-family="D-DIN" font-size="13" lengthAdjust="spacing" textLength="68" x="238.5" y="301.9707">[MassTransit</text><text fill="#000000" font-family="D-DIN" font-size="13" lengthAdjust="spacing" textLength="81" x="238.5" y="316.0887">DTO envelope]</text><text fill="#000000" font-family="D-DIN" font-size="11" lengthAdjust="spacing" textLength="2" x="630" y="352.3726">&#160;</text><text fill="#000000" font-family="D-DIN" font-size="11" lengthAdjust="spacing" textLength="2" x="630" y="364.3186">&#160;</text><polygon fill="#181818" points="466.5,424.5316,476.5,428.5316,466.5,432.5316,470.5,428.5316" style="stroke:#181818;stroke-width:1.0;"/><line style="stroke:#181818;stroke-width:1.0;stroke-dasharray:2.0,2.0;" x1="352.5" x2="472.5" y1="428.5316" y2="428.5316"/><text fill="#000000" font-family="D-DIN" font-size="13" lengthAdjust="spacing" textLength="112" x="359.5" y="396.0986">Consume command</text><text fill="#000000" font-family="D-DIN" font-size="13" lengthAdjust="spacing" textLength="68" x="359.5" y="410.2166">[MassTransit</text><text fill="#000000" font-family="D-DIN" font-size="13" lengthAdjust="spacing" textLength="81" x="359.5" y="424.3346">DTO envelope]</text><line style="stroke:#181818;stroke-width:1.0;" x1="488.5" x2="530.5" y1="470.7676" y2="470.7676"/><line style="stroke:#181818;stroke-width:1.0;" x1="530.5" x2="530.5" y1="470.7676" y2="483.7676"/><line style="stroke:#181818;stroke-width:1.0;" x1="489.5" x2="530.5" y1="483.7676" y2="483.7676"/><polygon fill="#181818" points="499.5,479.7676,489.5,483.7676,499.5,487.7676,495.5,483.7676" style="stroke:#181818;stroke-width:1.0;"/><text fill="#000000" font-family="D-DIN" font-size="13" lengthAdjust="spacing" textLength="108" x="495.5" y="452.4526">Unwrap MassTransit</text><text fill="#000000" font-family="D-DIN" font-size="13" lengthAdjust="spacing" textLength="95" x="495.5" y="466.5706">ConsumeContext</text><polygon fill="#181818" points="600,507.8856,610,511.8856,600,515.8856,604,511.8856" style="stroke:#181818;stroke-width:1.0;"/><line style="stroke:#181818;stroke-width:1.0;" x1="488.5" x2="606" y1="511.8856" y2="511.8856"/><text fill="#000000" font-family="D-DIN" font-size="13" lengthAdjust="spacing" textLength="82" x="495.5" y="507.6886">Command DTO</text><polygon fill="#181818" points="736,536.0036,746,540.0036,736,544.0036,740,540.0036" style="stroke:#181818;stroke-width:1.0;"/><line style="stroke:#181818;stroke-width:1.0;" x1="622" x2="742" y1="540.0036" y2="540.0036"/><text fill="#000000" font-family="D-DIN" font-size="13" lengthAdjust="spacing" textLength="82" x="629" y="535.8066">Command DTO</text><polygon fill="#181818" points="633,564.1217,623,568.1217,633,572.1217,629,568.1217" style="stroke:#181818;stroke-width:1.0;"/><line style="stroke:#181818;stroke-width:1.0;" x1="627" x2="752" y1="568.1217" y2="568.1217"/><text fill="#000000" font-family="D-DIN" font-size="13" lengthAdjust="spacing" textLength="102" x="639" y="563.9247">Domain Command</text><line style="stroke:#181818;stroke-width:1.0;" x1="622" x2="664" y1="635.3577" y2="635.3577"/><line style="stroke:#181818;stroke-width:1.0;" x1="664" x2="664" y1="635.3577" y2="648.3577"/><line style="stroke:#181818;stroke-width:1.0;" x1="623" x2="664" y1="648.3577" y2="648.3577"/><polygon fill="#181818" points="633,644.3577,623,648.3577,633,652.3577,629,648.3577" style="stroke:#181818;stroke-width:1.0;"/><text fill="#000000" font-family="D-DIN" font-size="13" lengthAdjust="spacing" textLength="112" x="629" y="617.0427">EventStream Id from</text><text fill="#000000" font-family="D-DIN" font-size="13" lengthAdjust="spacing" textLength="102" x="629" y="631.1607">Domain Command</text><polygon fill="#181818" points="999,686.5937,1009,690.5937,999,694.5937,1003,690.5937" style="stroke:#181818;stroke-width:1.0;"/><line style="stroke:#181818;stroke-width:1.0;" x1="622" x2="1005" y1="690.5937" y2="690.5937"/><text fill="#000000" font-family="D-DIN" font-size="13" lengthAdjust="spacing" textLength="92" x="629" y="672.2787">Get current state</text><text fill="#000000" font-family="D-DIN" font-size="13" lengthAdjust="spacing" textLength="101" x="629" y="686.3967">for EventStream Id</text><polygon fill="#181818" points="1215.5,714.7117,1225.5,718.7117,1215.5,722.7117,1219.5,718.7117" style="stroke:#181818;stroke-width:1.0;"/><line style="stroke:#181818;stroke-width:1.0;" x1="1026" x2="1221.5" y1="718.7117" y2="718.7117"/><text fill="#000000" font-family="D-DIN" font-size="13" lengthAdjust="spacing" textLength="59" x="1033" y="714.5147">Get events</text><polygon fill="#181818" points="1037,742.8297,1027,746.8297,1037,750.8297,1033,746.8297" style="stroke:#181818;stroke-width:1.0;"/><line style="stroke:#181818;stroke-width:1.0;" x1="1031" x2="1226.5" y1="746.8297" y2="746.8297"/><text fill="#000000" font-family="D-DIN" font-size="13" lengthAdjust="spacing" textLength="76" x="1043" y="742.6327">Event DTO list</text><path d="M700,761.8297 L770,761.8297 L770,767.9477 L760,777.9477 L700,777.9477 L700,761.8297 " fill="#EEEEEE" style="stroke:#000000;stroke-width:1.5;"/><rect fill="none" height="128.5901" style="stroke:#000000;stroke-width:1.5;" width="497" x="700" y="761.8297"/><text fill="#000000" font-family="D-DIN" font-size="13" font-weight="bold" lengthAdjust="spacing" textLength="25" x="715" y="774.7507">loop</text><text fill="#000000" font-family="D-DIN" font-size="11" font-weight="bold" lengthAdjust="spacing" textLength="99" x="785" y="773.9167">[for each event DTO]</text><polygon fill="#181818" points="1115,794.0658,1125,798.0658,1115,802.0658,1119,798.0658" style="stroke:#181818;stroke-width:1.0;"/><line style="stroke:#181818;stroke-width:1.0;" x1="1026" x2="1121" y1="798.0658" y2="798.0658"/><text fill="#000000" font-family="D-DIN" font-size="13" lengthAdjust="spacing" textLength="56" x="1033" y="793.8688">Event DTO</text><polygon fill="#181818" points="769,822.1838,759,826.1838,769,830.1838,765,826.1838" style="stroke:#181818;stroke-width:1.0;"/><line style="stroke:#181818;stroke-width:1.0;" x1="763" x2="1126" y1="826.1838" y2="826.1838"/><text fill="#000000" font-family="D-DIN" font-size="13" lengthAdjust="spacing" textLength="56" x="775" y="821.9868">Event DTO</text><polygon fill="#181818" points="1115,850.3018,1125,854.3018,1115,858.3018,1119,854.3018" style="stroke:#181818;stroke-width:1.0;"/><line style="stroke:#181818;stroke-width:1.0;" x1="753" x2="1121" y1="854.3018" y2="854.3018"/><text fill="#000000" font-family="D-DIN" font-size="13" lengthAdjust="spacing" textLength="76" x="760" y="850.1048">Domain Event</text><polygon fill="#181818" points="1037,878.4198,1027,882.4198,1037,886.4198,1033,882.4198" style="stroke:#181818;stroke-width:1.0;"/><line style="stroke:#181818;stroke-width:1.0;" x1="1031" x2="1131" y1="882.4198" y2="882.4198"/><text fill="#000000" font-family="D-DIN" font-size="13" lengthAdjust="spacing" textLength="76" x="1043" y="878.2228">Domain Event</text><polygon fill="#181818" points="858.5,913.5378,848.5,917.5378,858.5,921.5378,854.5,917.5378" style="stroke:#181818;stroke-width:1.0;"/><line style="stroke:#181818;stroke-width:1.0;" x1="852.5" x2="1015" y1="917.5378" y2="917.5378"/><text fill="#000000" font-family="D-DIN" font-size="13" lengthAdjust="spacing" textLength="82" x="864.5" y="913.3408">Get initial state</text><polygon fill="#181818" points="1004,941.6558,1014,945.6558,1004,949.6558,1008,945.6558" style="stroke:#181818;stroke-width:1.0;"/><line style="stroke:#181818;stroke-width:1.0;" x1="847.5" x2="1010" y1="945.6558" y2="945.6558"/><text fill="#000000" font-family="D-DIN" font-size="13" lengthAdjust="spacing" textLength="100" x="854.5" y="941.4588">state = initial state</text><path d="M796,960.6558 L866,960.6558 L866,966.7738 L856,976.7738 L796,976.7738 L796,960.6558 " fill="#EEEEEE" style="stroke:#000000;stroke-width:1.5;"/><rect fill="none" height="72.354" style="stroke:#000000;stroke-width:1.5;" width="281" x="796" y="960.6558"/><text fill="#000000" font-family="D-DIN" font-size="13" font-weight="bold" lengthAdjust="spacing" textLength="25" x="811" y="973.5768">loop</text><text fill="#000000" font-family="D-DIN" font-size="11" font-weight="bold" lengthAdjust="spacing" textLength="134" x="881" y="972.7428">[for each domain event evt]</text><polygon fill="#181818" points="858.5,992.8919,848.5,996.8919,858.5,1000.8919,854.5,996.8919" style="stroke:#181818;stroke-width:1.0;"/><line style="stroke:#181818;stroke-width:1.0;" x1="852.5" x2="1015" y1="996.8919" y2="996.8919"/><text fill="#000000" font-family="D-DIN" font-size="13" lengthAdjust="spacing" textLength="94" x="864.5" y="992.6949">evt |&gt; apply state</text><polygon fill="#181818" points="1004,1021.0099,1014,1025.0099,1004,1029.0099,1008,1025.0099" style="stroke:#181818;stroke-width:1.0;"/><line style="stroke:#181818;stroke-width:1.0;" x1="847.5" x2="1010" y1="1025.0099" y2="1025.0099"/><text fill="#000000" font-family="D-DIN" font-size="13" lengthAdjust="spacing" textLength="27" x="854.5" y="1020.8129">state</text><polygon fill="#181818" points="633,1056.1279,623,1060.1279,633,1064.1279,629,1060.1279" style="stroke:#181818;stroke-width:1.0;"/><line style="stroke:#181818;stroke-width:1.0;" x1="627" x2="1010" y1="1060.1279" y2="1060.1279"/><text fill="#000000" font-family="D-DIN" font-size="13" lengthAdjust="spacing" textLength="28" x="639" y="1055.9309">State</text><rect fill="#EEEEEE" height="3" style="stroke:#EEEEEE;stroke-width:1.0;" width="1273" x="0" y="1138.1869"/><line style="stroke:#000000;stroke-width:1.0;" x1="0" x2="1273" y1="1138.1869" y2="1138.1869"/><line style="stroke:#000000;stroke-width:1.0;" x1="0" x2="1273" y1="1141.1869" y2="1141.1869"/><rect fill="#EEEEEE" height="22.118" style="stroke:#000000;stroke-width:2.0;" width="174" x="549.5" y="1128.1279"/><text fill="#000000" font-family="D-DIN" font-size="13" font-weight="bold" lengthAdjust="spacing" textLength="157" x="555.5" y="1144.0489">Domain Command Handling</text><polygon fill="#181818" points="905,1176.3639,915,1180.3639,905,1184.3639,909,1180.3639" style="stroke:#181818;stroke-width:1.0;"/><line style="stroke:#181818;stroke-width:1.0;" x1="622" x2="911" y1="1180.3639" y2="1180.3639"/><text fill="#000000" font-family="D-DIN" font-size="13" lengthAdjust="spacing" textLength="142" x="629" y="1176.1669">Handle domain command</text><polygon fill="#181818" points="633,1204.4819,623,1208.4819,633,1212.4819,629,1208.4819" style="stroke:#181818;stroke-width:1.0;"/><line style="stroke:#181818;stroke-width:1.0;" x1="627" x2="921" y1="1208.4819" y2="1208.4819"/><text fill="#000000" font-family="D-DIN" font-size="13" lengthAdjust="spacing" textLength="109" x="639" y="1204.2849">New domain events</text><rect fill="#EEEEEE" height="3" style="stroke:#EEEEEE;stroke-width:1.0;" width="1273" x="0" y="1229.4819"/><line style="stroke:#000000;stroke-width:1.0;" x1="0" x2="1273" y1="1229.4819" y2="1229.4819"/><line style="stroke:#000000;stroke-width:1.0;" x1="0" x2="1273" y1="1232.4819" y2="1232.4819"/><polygon fill="#181818" points="1004,1310.5999,1014,1314.5999,1004,1318.5999,1008,1314.5999" style="stroke:#181818;stroke-width:1.0;"/><line style="stroke:#181818;stroke-width:1.0;" x1="622" x2="1010" y1="1314.5999" y2="1314.5999"/><text fill="#000000" font-family="D-DIN" font-size="13" lengthAdjust="spacing" textLength="83" x="629" y="1310.4029">Append events</text><path d="M700,1329.5999 L770,1329.5999 L770,1335.7179 L760,1345.7179 L700,1345.7179 L700,1329.5999 " fill="#EEEEEE" style="stroke:#000000;stroke-width:1.5;"/><rect fill="none" height="128.5901" style="stroke:#000000;stroke-width:1.5;" width="497" x="700" y="1329.5999"/><text fill="#000000" font-family="D-DIN" font-size="13" font-weight="bold" lengthAdjust="spacing" textLength="25" x="715" y="1342.5209">loop</text><text fill="#000000" font-family="D-DIN" font-size="11" font-weight="bold" lengthAdjust="spacing" textLength="116" x="785" y="1341.6869">[for each domain event]</text><polygon fill="#181818" points="1115,1361.836,1125,1365.836,1115,1369.836,1119,1365.836" style="stroke:#181818;stroke-width:1.0;"/><line style="stroke:#181818;stroke-width:1.0;" x1="1026" x2="1121" y1="1365.836" y2="1365.836"/><text fill="#000000" font-family="D-DIN" font-size="13" lengthAdjust="spacing" textLength="76" x="1033" y="1361.639">Domain Event</text><polygon fill="#181818" points="769,1389.954,759,1393.954,769,1397.954,765,1393.954" style="stroke:#181818;stroke-width:1.0;"/><line style="stroke:#181818;stroke-width:1.0;" x1="763" x2="1126" y1="1393.954" y2="1393.954"/><text fill="#000000" font-family="D-DIN" font-size="13" lengthAdjust="spacing" textLength="76" x="775" y="1389.757">Domain Event</text><polygon fill="#181818" points="1115,1418.072,1125,1422.072,1115,1426.072,1119,1422.072" style="stroke:#181818;stroke-width:1.0;"/><line style="stroke:#181818;stroke-width:1.0;" x1="753" x2="1121" y1="1422.072" y2="1422.072"/><text fill="#000000" font-family="D-DIN" font-size="13" lengthAdjust="spacing" textLength="56" x="760" y="1417.875">Event DTO</text><polygon fill="#181818" points="1037,1446.19,1027,1450.19,1037,1454.19,1033,1450.19" style="stroke:#181818;stroke-width:1.0;"/><line style="stroke:#181818;stroke-width:1.0;" x1="1031" x2="1131" y1="1450.19" y2="1450.19"/><text fill="#000000" font-family="D-DIN" font-size="13" lengthAdjust="spacing" textLength="56" x="1043" y="1445.993">Event DTO</text><polygon fill="#181818" points="1004,1481.308,1014,1485.308,1004,1489.308,1008,1485.308" style="stroke:#181818;stroke-width:1.0;"/><line style="stroke:#181818;stroke-width:1.0;" x1="622" x2="1010" y1="1485.308" y2="1485.308"/><text fill="#000000" font-family="D-DIN" font-size="13" lengthAdjust="spacing" textLength="26" x="629" y="1481.111">Save</text><polygon fill="#181818" points="1215.5,1509.426,1225.5,1513.426,1215.5,1517.426,1219.5,1513.426" style="stroke:#181818;stroke-width:1.0;"/><line style="stroke:#181818;stroke-width:1.0;" x1="1021" x2="1221.5" y1="1513.426" y2="1513.426"/><text fill="#000000" font-family="D-DIN" font-size="13" lengthAdjust="spacing" textLength="122" x="1028" y="1509.229">Append events (DTOs)</text><polygon fill="#181818" points="633,1523.426,623,1527.426,633,1531.426,629,1527.426" style="stroke:#181818;stroke-width:1.0;"/><line style="stroke:#181818;stroke-width:1.0;stroke-dasharray:2.0,2.0;" x1="627" x2="1015" y1="1527.426" y2="1527.426"/><polygon fill="#181818" points="499.5,1537.426,489.5,1541.426,499.5,1545.426,495.5,1541.426" style="stroke:#181818;stroke-width:1.0;"/><line style="stroke:#181818;stroke-width:1.0;stroke-dasharray:2.0,2.0;" x1="493.5" x2="616" y1="1541.426" y2="1541.426"/><polygon fill="#181818" points="358.5,1565.544,348.5,1569.544,358.5,1573.544,354.5,1569.544" style="stroke:#181818;stroke-width:1.0;"/><line style="stroke:#181818;stroke-width:1.0;stroke-dasharray:2.0,2.0;" x1="352.5" x2="482.5" y1="1569.544" y2="1569.544"/><text fill="#000000" font-family="D-DIN" font-size="13" lengthAdjust="spacing" textLength="19" x="364.5" y="1565.347">ack</text><text fill="#888888" font-family="D-DIN" font-size="10" lengthAdjust="spacing" textLength="42" x="1230" y="1704.7337">Version 0.1</text><!--SRC=[hLTBSzem4BxhL-pGItk0jbScT8P2ckQGD3EqlSGPHjY2gB4bLv99CyEFxrgoGV83qZJCWAt7VllwTYNq0nSvLJI3XArfaPelKfXhcZ4Op8Vpo-i1qViTAne_R9GiH3AJgLJmvjn-237Sf0ncCc4mn4UMKP70FVwaN6o8ufjx0sif3LFmaodDfO0Feu-48ApXCS-fC32OfPm9Cm2g8RQlP5Mgeke91jERIxj0SqvYD53950QtDr8P_NwQq1oHzLqa8d75jAOR1fyB7ObgnKfcRc5Lw2Lrq-HtmGfqqnDfxFHKJVCyvJ4rQFheYchzNL6XkGbqpgJGHLRhCyku6dV3MD4B9fZYSIJgeCs_Vuk4ZLo5anYvhCPXk6xdCgFSmQ0KND4yzsGoE-mNMHXgM2HkbFp5uj8UAwdBsMM-doIO1cwUGj7fPgFO1ZUwbDIZuuavtoBKmaZ5mhomSbwNy_kyX3QVmBBlllCUe7sj0f5GGrTKOxuFqetzX3ZUmV1JIRGnB8fLnaqaOfUSo9K1A-qW5EEpHQyj9V5R2hKvXXWCixe7kFMuuzB6n9QbCcTt1yGEghQdO1We_1T52JkcobijNIEZqGWY0VWWn2Crd0s7WVwA_I_srPlpIiVNM3fy68xXXtXKD8T0JMK5FWpxOvhYNZ6DmIivSb3krvltNaixDeN2WMnDDq_qR1Y8kagg4VnuU_AxtOvqwTzRNx5OCUpBbmcibSmmo0teKBvTQcEuO0RYGgcIzjgrX3LszX3zu657jRQdGbrEXniV1UfOyy3x773rNx8hvTgGLCeSIWymglTEmEO8y7FAKhzVUC1MjijmlxqqyBsb9dDwSBtS7y7gffA5j6BTPEfn7i7wd3y6t1C1R3-aXmpDKyLHWWjkE4tTwY7xxIEeq_8sffs1IGCt94JY_7AyO5jpX1Tj1RWVTkNHaATF5Nf_P7liis7oWjdojjavkZXlpsxIdPAwccm7AR-JIQFZmDVgOWQJYSjjs2Rs1_hOxMHrrAhE7lBsSFmteT1u3-gQFGRHrqrQ7O3GOhIijlyvNGolLUNfzumcqq-75xI8LfMyNfVeXtvHemYRpcjrYLxK8otY16kVaUm5tRB_F942li1Rz42_EsLP5sfuA9CJ49sh3PV3EqxpSh1N5Dnh6XT1_9CMNF4ykEwh7_aB]--></g></svg>